<?xml version="1.0" encoding="UTF-8"?><svg id="Layer_1" xmlns="http://www.w3.org/2000/svg" viewBox="0 0 607.5 305"><defs><style>.cls-1{fill:#fff;}</style></defs><ellipse class="cls-1" cx="303.75" cy="152.5" rx="303.75" ry="152.5"/><g><circle cx="216.83" cy="95.54" r="18.61"/><path d="M280.71,205.41c-3.62,3.21-7.67,4.39-7.67,4.39-.53,.15-2.52,.7-5.21,.79,0,0-2.59,.02-5.19-.44-14.53-2.54-16.96-20.01-34.12-24.81-7.92-2.22-14.65-.52-16.51-.03-2.86,.76-9.02,2.84-23.39,18.27-11.13,11.96-13.23,16.93-22.66,22.66-6.21,3.77-10.25,4.62-13.89,4.39-7.51-.49-12.56-5.3-13.89-6.58-7.63-7.36-8.51-18.03-8.77-21.2-.13-1.58-.24-4.39-.73-9.87-.09-1.06-.48-5.41-.73-7.31-1.33-10.09-7.74-18.31-9.14-20.1-4.66-5.98-9.76-9.52-13.89-12.06-26.68-16.42-48.72-15.87-55.92-31.06-2.22-4.69-2.54-9.84-2.56-10.23-.48-9.06,3.74-15.91,5.48-18.64,3.4-5.35,7.34-8.41,9.58-10.12,2.56-1.95,11.37-8.48,24.17-9.03,2.41-.1,7.21-.27,13.03,1.61,6.97,2.25,11.41,6.14,13.52,8.04,4.1,3.68,6.55,7.4,7.79,9.31,1.62,2.5,2.64,4.55,3.18,5.68,5.45,11.29,8.31,22.31,14.46,34.92,5.2,10.66,9.21,15.2,10.46,16.56,3.27,3.58,7.01,7.69,12.86,9.99,11.12,4.38,22.49-.63,24.96-1.79,12.03-5.62,14.35-16.33,27.07-18.54,6.73-1.17,12.48,.71,13.44,1.03,7.89,2.68,8.22,7.1,16.2,11.03,2.57,1.27,11.77,5.36,21.02,2.41,3.45-1.1,8.52-3.69,13.78-11.37,16.03-23.39,.76-45.68,14.82-62.37,8.98-10.66,25.04-12.61,36.01-10.51,2.5,.48,21.31,4.37,26.62,19.88,2.78,8.11,.47,15.34,.09,16.48-3.86,11.55-14.24,13.83-27.57,23.78-7.79,5.81-24.07,17.96-31.01,37.22-3.6,9.99-9.39,32.05-15.7,37.65Z"/></g><path d="M362.07,181.07c-.97-9.27-8.33-14.49-8.95-14.91-8.72-5.97-20.37-3.46-27.59,1.49-9.28,6.37-13.33,18.18-11.18,27.59,.42,1.86,1.58,6.9,5.96,10.44,4.54,3.66,9.96,3.7,14.17,3.73,2.72,.02,7.05,.04,11.93-2.24,7.07-3.31,10.42-9.18,11.93-11.93,1.81-3.29,4.38-7.95,3.73-14.17Zm-20.81,14.27c-.32,.13-.68,.26-.68,.26-.33,.12-1.88,.64-3.98,.66-1.56,.02-4.19,.05-6.3-1.66-1.68-1.35-2.44-3.33-2.65-4.64-1.09-6.78,9.1-16.34,15.03-14.11,3.32,1.25,4.28,5.8,4.47,6.71,1.38,6.56-3.89,11.95-5.9,12.78Z"/><path d="M427.04,115.39c1.1-.6,2.69-1.6,4.29-3.16,1.42-1.39,4.25-5.12,5.75-9.76,1.35-4.19,1.1-5.2,2.56-6.81,.4-.44,2.45-2.82,5.48-2.86,3.66-.06,5.86,3.31,6.1,3.69,.09,.14,2.06,3.37,.91,6.89-1.87,5.72-9.59,4.76-10.83,9.24-1.26,4.55,5.3,10.59,8.98,13.06,3.18,2.13,6.98,3.7,6.98,3.7,4.65,1.56,7.98,5.14,8.4,9.19,.29,2.84-.73,6.96-3.39,8.32-.81,.42-1.82,.59-2.33,.68-.61,.11-2.45,.37-4.6-.17-1.49-.38-3.06-1.14-4.68-2.53-6.81-5.85-12.93-21.43-19.75-21.43-1.12,0-2.93,.41-3.91,1.71-1.05,1.37-1.05,3.58-1.03,6.87,0,1.03,.09,.88,.12,2.13,.06,2.68,.1,4.03-.39,5.21-.98,2.4-3.4,3.46-3.98,3.69-.46,.18-3.48,1.34-6.13-.23-1.96-1.16-2.66-3.18-2.92-3.95-1.95-5.65,2.3-12.02,3.74-17.97,3.53-14.56-8.33-32.63-9.08-44.11-.08-1.24-.09-3.27,.97-5.34,1.45-2.83,4.07-4.11,4.78-4.43,4.42-1.98,9.96-.48,12.95,2.8,.96,1.06,2.14,2.82,2.81,7.02,1.63,10.3-2.06,15.68-2.55,26.78-.12,2.76-.09,6.82,.76,11.8Z"/><path d="M521.71,119.06c-2.8-2.91-8.84,1.68-11.39-.67-4.47-4.13,9.24-22.65,4-27.96-.99-1-2.69-1.58-4.2-1.5-3.67,.19-5.85,4.23-6.13,4.76-1.67-1.23-5.51-3.66-10.47-3.43-8.34,.39-13.2,7.98-14.82,10.5-4.92,7.67-8.41,22-.54,28.89,4.7,4.11,13.07,5.23,18.98,1.73,2.05-1.22,3.41-2.75,4.23-3.86,1.37,1.03,3.78,2.55,7.08,3.17,.98,.18,9.61,1.66,12.97-3.58,1.5-2.33,2.08-6.18,.28-8.04Zm-23.26-4.6c-.74,2.29-.75,2.41-1,2.8-1.86,2.89-6.49,4.55-9.01,3.1-3.4-1.96-2.99-9.6,.31-14.11,2.55-3.49,7.63-6.2,10.17-4.58,1.38,.88,1.65,2.79,1.8,3.8,.26,1.77-.23,2.66-2.27,8.99Z"/><path d="M400.13,121.19c-.74-7.1-6.38-11.1-6.85-11.42-6.68-4.58-15.61-2.65-21.14,1.14-7.11,4.88-10.22,13.93-8.57,21.14,.33,1.42,1.21,5.29,4.57,8,3.47,2.8,7.63,2.84,10.85,2.86,2.09,.01,5.4,.03,9.14-1.71,5.42-2.53,7.98-7.03,9.14-9.14,1.39-2.52,3.36-6.09,2.86-10.85Zm-15.94,10.93c-.24,.1-.52,.2-.52,.2-.25,.09-1.44,.49-3.05,.51-1.2,.01-3.21,.04-4.82-1.27-1.29-1.04-1.87-2.55-2.03-3.56-.84-5.19,6.97-12.52,11.52-10.81,2.55,.96,3.28,4.44,3.43,5.14,1.06,5.02-2.98,9.15-4.52,9.79Z"/><path d="M378.42,235.79c-6.23-1.13-10.99-2.73-12.01-6.06-1.14-3.7,3.35-6.26,8.71-15.44,2.26-3.86,6.82-11.83,7.97-22.26,.83-7.45-.08-15.52-.08-15.52-.79-7.04-2.01-8.53-.96-11.14,2.71-6.75,16.46-10.8,22.19-6.04,6.95,5.78,.4,23.14-1.6,28.42-1.71,4.51-3.51,7.64-5.36,10.78-10.35,17.68-20.32,23.36-18.87,25.86,2.15,3.71,28.56-.35,39.74-13.92,1.24-1.5,4.05-5.25,7.9-5.26,4.23,0,7.81,4.53,9.38,7.81,1.55,3.23,2.25,7.58,1.22,11.03-4.24,14.19-38.49,15.31-58.25,11.74Z"/><path d="M496.15,195.42c1.08-.64,2.63-1.7,4.16-3.32,1.37-1.44,4.06-5.28,5.37-9.98,1.19-4.24,.9-5.24,2.3-6.91,.38-.45,2.34-2.91,5.37-3.07,3.65-.2,5.98,3.09,6.23,3.46,.09,.13,2.18,3.29,1.17,6.85-1.65,5.79-9.4,5.12-10.47,9.64-1.08,4.6,5.7,10.39,9.47,12.71,3.26,2.01,7.12,3.43,7.12,3.43,4.34,1.6,6.2,1.44,7.88,3.38,1.72,2,1.83,4.56,1.89,6.04,.07,1.72,.19,4.66-1.9,7.03-2.84,3.23-7.38,2.66-7.82,2.6-2.67-.38-4.56-1.9-6.06-3.33-8.02-7.64-6.43-14.08-13.42-19.2-2.72-2-7.17-4.1-9.37-2.53-.72,.52-1.02,1.31-1.61,2.92-.97,2.66-.85,5.08-.77,6.91,.14,3.26,.69,3.31,.77,6.14,.08,2.84,.16,5.43-1.53,7.67-.32,.43-2.15,2.76-5.37,3.07-.17,.02-3.82,.31-6.14-2.3-1.47-1.66-1.7-3.69-1.77-4.86-.39-6.94,3.1-15.66,4.07-20.46,2.96-14.65-9.58-32.42-10.74-43.74-.13-1.23-.21-3.26,.77-5.37,1.34-2.89,3.91-4.26,4.6-4.6,4.34-2.15,9.93-.86,13.04,2.3,1,1.02,2.25,2.74,3.07,6.91,2.02,10.23-1.46,15.75-1.53,26.86-.02,2.77,.17,6.82,1.21,11.76Z"/><g><circle cx="447.35" cy="164.04" r="5.37"/><path d="M461.31,204.24c-3.94,3.59-11.36,4.31-14.08,1.28-3.61-4.02,4.15-11.19,1.74-23.02-.29-1.44-.92-3.86,.36-5.79,1.54-2.32,5.39-3.27,8.17-2.2,3.65,1.41,4.61,6.08,5.51,10.83,1.44,7.59,2.96,14.67-1.69,18.9Z"/></g></svg>