<?xml version="1.0" encoding="UTF-8"?><svg id="Layer_1" xmlns="http://www.w3.org/2000/svg" viewBox="0 0 975.24 105.02"><g><circle cx="106.96" cy="20.21" r="11.68"/><path d="M147.06,89.17c-2.27,2.01-4.82,2.75-4.82,2.75-.33,.1-1.58,.44-3.27,.5,0,0-1.63,.01-3.26-.27-9.12-1.6-10.65-12.56-21.41-15.57-4.97-1.39-9.2-.33-10.36-.02-1.79,.47-5.66,1.78-14.68,11.47-6.99,7.5-8.3,10.63-14.22,14.22-3.9,2.37-6.43,2.9-8.72,2.75-4.71-.31-7.88-3.32-8.72-4.13-4.79-4.62-5.34-11.32-5.51-13.3-.08-.99-.15-2.76-.46-6.19-.06-.66-.3-3.4-.46-4.59-.84-6.33-4.86-11.49-5.73-12.62-2.93-3.75-6.12-5.97-8.72-7.57C19.98,46.29,6.15,46.63,1.63,37.1,.23,34.15,.04,30.92,.02,30.68c-.3-5.69,2.35-9.98,3.44-11.7,2.14-3.36,4.61-5.28,6.01-6.35,1.61-1.23,7.14-5.32,15.17-5.67,1.51-.07,4.53-.17,8.18,1.01,4.38,1.41,7.16,3.86,8.49,5.05,2.58,2.31,4.11,4.64,4.89,5.84,1.02,1.57,1.65,2.86,1.99,3.56,3.42,7.09,5.22,14,9.08,21.92,3.27,6.69,5.78,9.54,6.56,10.39,2.05,2.25,4.4,4.83,8.07,6.27,6.98,2.75,14.12-.4,15.67-1.12,7.55-3.53,9.01-10.25,16.99-11.64,4.23-.74,7.84,.45,8.44,.65,4.95,1.68,5.16,4.45,10.17,6.92,1.61,.8,7.39,3.36,13.19,1.51,2.17-.69,5.35-2.32,8.65-7.14,10.06-14.68,.48-28.67,9.3-39.15,5.63-6.69,15.71-7.91,22.6-6.6,1.57,.3,13.37,2.74,16.71,12.48,1.74,5.09,.3,9.63,.06,10.34-2.42,7.25-8.94,8.68-17.3,14.92-4.89,3.65-15.11,11.27-19.47,23.36-2.26,6.27-5.89,20.12-9.85,23.63Z"/></g><path d="M270.18,63.27c-1.02-9.68-8.7-15.13-9.34-15.57-9.11-6.24-21.27-3.62-28.8,1.56-9.69,6.65-13.92,18.98-11.68,28.8,.44,1.94,1.65,7.2,6.23,10.9,4.74,3.82,10.4,3.87,14.79,3.89,2.84,.02,7.36,.05,12.46-2.34,7.39-3.45,10.87-9.58,12.46-12.46,1.89-3.44,4.57-8.3,3.89-14.79Zm-21.72,14.9c-.33,.14-.71,.27-.71,.27-.35,.12-1.96,.67-4.15,.69-1.63,.02-4.37,.05-6.58-1.73-1.75-1.41-2.55-3.47-2.77-4.84-1.14-7.07,9.5-17.06,15.7-14.73,3.47,1.3,4.47,6.06,4.67,7.01,1.44,6.84-4.06,12.48-6.16,13.34Z"/><path d="M331.77,64.8c1.28-.76,3.12-2.02,4.95-3.95,1.62-1.72,4.82-6.27,6.38-11.86,1.41-5.03,1.07-6.23,2.74-8.21,.45-.54,2.79-3.46,6.38-3.65,4.34-.23,7.11,3.67,7.41,4.11,.11,.16,2.6,3.91,1.39,8.14-1.97,6.88-11.17,6.08-12.44,11.46-1.29,5.46,6.78,12.34,11.25,15.1,3.87,2.38,8.46,4.07,8.46,4.07,5.59,1.65,9.71,5.74,10.39,10.54,.48,3.36-.56,8.3-3.65,10.03-.95,.53-2.13,.78-2.74,.91-.72,.15-2.9,.55-5.47,0-1.79-.38-3.69-1.22-5.67-2.8-8.35-6.64-16.32-24.87-24.43-24.56-1.33,.05-3.46,.62-4.57,2.21-1.18,1.68-1.08,4.29-.91,8.21,.05,1.22,.14,1.05,.23,2.53,.2,3.19,.3,4.78-.22,6.21-1.05,2.9-3.88,4.26-4.56,4.56-.54,.24-4.07,1.75-7.3,0-2.38-1.29-3.3-3.66-3.65-4.56-2.57-6.62,2.19-14.38,3.64-21.5,3.53-17.45-11.37-38.37-12.77-51.98-.15-1.46-.25-3.88,.91-6.38,1.59-3.43,4.65-5.06,5.47-5.47,5.16-2.55,11.8-1.02,15.5,2.74,1.19,1.21,2.67,3.25,3.65,8.21,2.4,12.15-1.74,18.72-1.82,31.92-.02,3.29,.2,8.1,1.44,13.98Z"/><path d="M472.45,77.55c-2.89-3.83-10.67,.73-13.34-2.41-4.68-5.5,14.13-25.41,8.7-32.42-1.02-1.32-2.95-2.25-4.75-2.37-4.35-.3-7.51,4.16-7.91,4.75-1.8-1.69-5.98-5.1-11.86-5.54-9.89-.73-16.71,7.53-18.98,10.28-6.89,8.35-13.06,24.76-4.75,34.01,4.96,5.51,14.67,8.03,22.14,4.75,2.6-1.14,4.41-2.76,5.54-3.95,1.47,1.41,4.1,3.55,7.91,4.75,1.13,.35,11.1,3.33,15.82-2.37,2.1-2.53,3.34-6.99,1.48-9.45Zm-26.79-8.74c-1.19,2.59-1.23,2.74-1.58,3.16-2.61,3.14-8.3,4.44-11.07,2.37-3.74-2.8-2.16-11.75,2.37-16.61,3.51-3.76,9.88-6.23,12.65-3.95,1.5,1.23,1.55,3.52,1.58,4.75,.05,2.12-.65,3.11-3.95,10.28Z"/><g><circle cx="519.12" cy="49.53" r="6.38"/><circle cx="519.12" cy="78.71" r="6.38"/></g><path d="M604.39,94.67c-3.4-3.25-2.85-8.81-2.74-10.03,.76-7.82,6.37-9.17,8.21-18.24,.5-2.46,1.38-7.48-.91-9.12-3.38-2.41-15.3,5.07-20.52,15.96-5.06,10.55-2,20.41-8.21,23.71-.58,.31-3.36,1.79-6.38,.91-2.81-.82-4.31-3.24-4.56-3.65-3.04-5.11,1.06-11.16,7.75-27.81,3.5-8.71,5.78-15.48,7.05-19.34,3.4-10.38,5.13-15.55,5.67-19.13,1.73-11.42-.55-17.09,4.15-22.17,2.33-2.52,5.06-3.48,6.84-4.1,7.13-2.5,17.31-1.55,19.15,2.74,3.24,7.57-21.34,21.24-19.61,35.11,.14,1.08,.54,4.29,2.74,5.47,2.56,1.38,4.84-1.47,10.49-2.28,1.31-.19,7.97-1.19,12.77,2.74,.09,.07,.22,.18,.39,.33,0,0,3.06,2.68,4.17,6.97,.98,3.79-1.98,7.23-11.4,22.34-1.2,1.92-2.85,4.64-1.82,6.38,.62,1.06,1.96,.72,5.47,1.82,2.95,.93,4.55,1.44,5.47,2.74,1.51,2.13,.82,5.87-.91,8.21-3.72,5.02-12.39,3.72-15.96,3.19-3.03-.45-5.34-.86-7.3-2.74Z"/><path d="M729.19,60.09c-1.02-9.68-8.7-15.13-9.34-15.57-9.11-6.24-21.27-3.62-28.8,1.56-9.69,6.65-13.92,18.98-11.68,28.8,.44,1.94,1.65,7.2,6.23,10.9,4.74,3.82,10.4,3.87,14.79,3.89,2.84,.02,7.36,.05,12.46-2.34,7.39-3.45,10.87-9.58,12.46-12.46,1.89-3.44,4.57-8.3,3.89-14.79Zm-21.72,14.9c-.33,.14-.71,.27-.71,.27-.35,.12-1.96,.67-4.15,.69-1.63,.02-4.37,.05-6.58-1.73-1.75-1.41-2.55-3.47-2.77-4.84-1.14-7.07,9.5-17.06,15.7-14.73,3.47,1.3,4.47,6.06,4.67,7.01,1.44,6.84-4.06,12.48-6.16,13.34Z"/><path d="M774.65,88.24c-4.58-10.05,5.72-17.02,4.38-35.06-.53-7.16-2.7-13.49-2.83-13.84-2.81-8.05-5.47-9.26-7.21-16.25-1.1-4.41-2.83-11.4,.91-16.42,3.54-4.75,11.75-7.42,16.42-4.56,7.09,4.35,5.16,21.01,2.22,46.24-1.9,16.33-4.34,26.74,1.43,31.28,4.66,3.67,11.93,1.36,13.68,5.47,1.41,3.32-2.17,7.56-2.74,8.21-4.05,4.63-11.17,5.41-16.42,3.65-.8-.27-7-2.46-9.85-8.71Z"/><path d="M927.08,58.1c1.28-.76,3.12-2.02,4.95-3.95,1.62-1.72,4.82-6.27,6.38-11.86,1.41-5.03,1.07-6.23,2.74-8.21,.45-.54,2.79-3.46,6.38-3.65,4.34-.23,7.11,3.67,7.41,4.11,.11,.16,2.6,3.91,1.39,8.14-1.97,6.88-11.17,6.08-12.44,11.46-1.29,5.46,6.78,12.34,11.25,15.1,3.87,2.38,8.46,4.07,8.46,4.07,5.16,1.9,7.37,1.71,9.37,4.02,2.05,2.37,2.17,5.41,2.25,7.18,.08,2.04,.23,5.54-2.25,8.35-3.38,3.84-8.77,3.17-9.3,3.09-3.17-.45-5.41-2.26-7.2-3.96-9.53-9.08-7.64-16.73-15.95-22.82-3.24-2.37-8.52-4.87-11.14-3-.86,.61-1.22,1.56-1.91,3.47-1.15,3.16-1.01,6.03-.91,8.21,.17,3.87,.82,3.93,.91,7.3,.1,3.38,.18,6.45-1.82,9.12-.39,.51-2.56,3.28-6.38,3.65-.2,.02-4.54,.37-7.3-2.74-1.75-1.97-2.02-4.39-2.1-5.78-.47-8.25,3.68-18.61,4.84-24.31,3.52-17.42-11.39-38.52-12.77-51.98-.15-1.46-.25-3.88,.91-6.38,1.59-3.43,4.65-5.06,5.47-5.47,5.16-2.55,11.8-1.02,15.5,2.74,1.19,1.21,2.67,3.25,3.65,8.21,2.4,12.15-1.74,18.72-1.82,31.92-.02,3.29,.2,8.1,1.44,13.98Z"/><g><circle cx="846.09" cy="37.59" r="6.36"/><path d="M862.62,85.19c-4.67,4.25-13.45,5.11-16.68,1.52-4.28-4.76,4.92-13.25,2.06-27.26-.35-1.71-1.09-4.57,.43-6.86,1.82-2.75,6.38-3.87,9.67-2.6,4.33,1.67,5.46,7.2,6.52,12.83,1.7,8.99,3.5,17.37-2,22.38Z"/></g></svg>