<svg width="53" height="88" viewBox="0 0 53 88" fill="none" xmlns="http://www.w3.org/2000/svg">
<rect width="53" height="50" rx="25" fill="#4567B7"/>
<path d="M24.076 21.4V19.336H27.932V31H25.628V21.4H24.076Z" fill="white"/>
<path d="M4.768 82.112C4.032 82.112 3.37067 81.984 2.784 81.728C2.208 81.4613 1.75467 81.0987 1.424 80.64C1.09333 80.1707 0.922667 79.632 0.912 79.024H2.464C2.51733 79.5467 2.73067 79.9893 3.104 80.352C3.488 80.704 4.04267 80.88 4.768 80.88C5.46133 80.88 6.00533 80.7093 6.4 80.368C6.80533 80.016 7.008 79.568 7.008 79.024C7.008 78.5973 6.89067 78.2507 6.656 77.984C6.42133 77.7173 6.128 77.5147 5.776 77.376C5.424 77.2373 4.94933 77.088 4.352 76.928C3.616 76.736 3.024 76.544 2.576 76.352C2.13867 76.16 1.76 75.8613 1.44 75.456C1.13067 75.04 0.976 74.4853 0.976 73.792C0.976 73.184 1.13067 72.6453 1.44 72.176C1.74933 71.7067 2.18133 71.344 2.736 71.088C3.30133 70.832 3.94667 70.704 4.672 70.704C5.71733 70.704 6.57067 70.9653 7.232 71.488C7.904 72.0107 8.28267 72.704 8.368 73.568H6.768C6.71467 73.1413 6.49067 72.768 6.096 72.448C5.70133 72.1173 5.17867 71.952 4.528 71.952C3.92 71.952 3.424 72.112 3.04 72.432C2.656 72.7413 2.464 73.1787 2.464 73.744C2.464 74.1493 2.576 74.48 2.8 74.736C3.03467 74.992 3.31733 75.1893 3.648 75.328C3.98933 75.456 4.464 75.6053 5.072 75.776C5.808 75.9787 6.4 76.1813 6.848 76.384C7.296 76.576 7.68 76.88 8 77.296C8.32 77.7013 8.48 78.256 8.48 78.96C8.48 79.504 8.336 80.016 8.048 80.496C7.76 80.976 7.33333 81.3653 6.768 81.664C6.20267 81.9627 5.536 82.112 4.768 82.112ZM11.3746 71.808C11.0973 71.808 10.8626 71.712 10.6706 71.52C10.4786 71.328 10.3826 71.0933 10.3826 70.816C10.3826 70.5387 10.4786 70.304 10.6706 70.112C10.8626 69.92 11.0973 69.824 11.3746 69.824C11.6413 69.824 11.8653 69.92 12.0466 70.112C12.2386 70.304 12.3346 70.5387 12.3346 70.816C12.3346 71.0933 12.2386 71.328 12.0466 71.52C11.8653 71.712 11.6413 71.808 11.3746 71.808ZM12.0786 73.232V82H10.6226V73.232H12.0786ZM18.1761 73.088C18.9335 73.088 19.5948 73.2533 20.1601 73.584C20.7361 73.9147 21.1628 74.3307 21.4401 74.832V73.232H22.9121V82.192C22.9121 82.992 22.7415 83.7013 22.4001 84.32C22.0588 84.9493 21.5681 85.44 20.9281 85.792C20.2988 86.144 19.5628 86.32 18.7201 86.32C17.5681 86.32 16.6081 86.048 15.8401 85.504C15.0721 84.96 14.6188 84.2187 14.4801 83.28H15.9201C16.0801 83.8133 16.4108 84.24 16.9121 84.56C17.4135 84.8907 18.0161 85.056 18.7201 85.056C19.5201 85.056 20.1708 84.8053 20.6721 84.304C21.1841 83.8027 21.4401 83.0987 21.4401 82.192V80.352C21.1521 80.864 20.7255 81.2907 20.1601 81.632C19.5948 81.9733 18.9335 82.144 18.1761 82.144C17.3975 82.144 16.6881 81.952 16.0481 81.568C15.4188 81.184 14.9228 80.6453 14.5601 79.952C14.1975 79.2587 14.0161 78.4693 14.0161 77.584C14.0161 76.688 14.1975 75.904 14.5601 75.232C14.9228 74.5493 15.4188 74.0213 16.0481 73.648C16.6881 73.2747 17.3975 73.088 18.1761 73.088ZM21.4401 77.6C21.4401 76.9387 21.3068 76.3627 21.0401 75.872C20.7735 75.3813 20.4108 75.008 19.9521 74.752C19.5041 74.4853 19.0081 74.352 18.4641 74.352C17.9201 74.352 17.4241 74.48 16.9761 74.736C16.5281 74.992 16.1708 75.3653 15.9041 75.856C15.6375 76.3467 15.5041 76.9227 15.5041 77.584C15.5041 78.256 15.6375 78.8427 15.9041 79.344C16.1708 79.8347 16.5281 80.2133 16.9761 80.48C17.4241 80.736 17.9201 80.864 18.4641 80.864C19.0081 80.864 19.5041 80.736 19.9521 80.48C20.4108 80.2133 20.7735 79.8347 21.0401 79.344C21.3068 78.8427 21.4401 78.2613 21.4401 77.6ZM29.6446 73.072C30.7113 73.072 31.5753 73.3973 32.2366 74.048C32.898 74.688 33.2286 75.616 33.2286 76.832V82H31.7886V77.04C31.7886 76.1653 31.57 75.4987 31.1326 75.04C30.6953 74.5707 30.098 74.336 29.3406 74.336C28.5726 74.336 27.9593 74.576 27.5006 75.056C27.0526 75.536 26.8286 76.2347 26.8286 77.152V82H25.3726V73.232H26.8286V74.48C27.1166 74.032 27.506 73.6853 27.9966 73.44C28.498 73.1947 29.0473 73.072 29.6446 73.072ZM41.3286 70.848V82H39.8726V70.848H41.3286ZM48.0821 73.072C49.1488 73.072 50.0128 73.3973 50.6741 74.048C51.3355 74.688 51.6661 75.616 51.6661 76.832V82H50.2261V77.04C50.2261 76.1653 50.0075 75.4987 49.5701 75.04C49.1328 74.5707 48.5355 74.336 47.7781 74.336C47.0101 74.336 46.3968 74.576 45.9381 75.056C45.4901 75.536 45.2661 76.2347 45.2661 77.152V82H43.8101V73.232H45.2661V74.48C45.5541 74.032 45.9435 73.6853 46.4341 73.44C46.9355 73.1947 47.4848 73.072 48.0821 73.072Z" fill="black"/>
</svg>
