<svg width="145" height="88" viewBox="0 0 145 88" fill="none" xmlns="http://www.w3.org/2000/svg">
<rect x="46" width="53" height="50" rx="25" fill="#4567B7"/>
<path d="M69.052 28.472C70.076 27.6187 70.892 26.9093 71.5 26.344C72.108 25.768 72.6147 25.1707 73.02 24.552C73.4253 23.9333 73.628 23.3253 73.628 22.728C73.628 22.184 73.5 21.7573 73.244 21.448C72.988 21.1387 72.5933 20.984 72.06 20.984C71.5267 20.984 71.116 21.1653 70.828 21.528C70.54 21.88 70.3907 22.3653 70.38 22.984H68.204C68.2467 21.704 68.6253 20.7333 69.34 20.072C70.0653 19.4107 70.9827 19.08 72.092 19.08C73.308 19.08 74.2413 19.4053 74.892 20.056C75.5427 20.696 75.868 21.544 75.868 22.6C75.868 23.432 75.644 24.2267 75.196 24.984C74.748 25.7413 74.236 26.4027 73.66 26.968C73.084 27.5227 72.332 28.1947 71.404 28.984H76.124V30.84H68.22V29.176L69.052 28.472Z" fill="white"/>
<path d="M5.816 76.256C6.22133 76.32 6.58933 76.4853 6.92 76.752C7.26133 77.0187 7.528 77.3493 7.72 77.744C7.92267 78.1387 8.024 78.56 8.024 79.008C8.024 79.5733 7.88 80.0853 7.592 80.544C7.304 80.992 6.88267 81.3493 6.328 81.616C5.784 81.872 5.13867 82 4.392 82H0.232V70.848H4.232C4.98933 70.848 5.63467 70.976 6.168 71.232C6.70133 71.4773 7.10133 71.8133 7.368 72.24C7.63467 72.6667 7.768 73.1467 7.768 73.68C7.768 74.3413 7.58667 74.8907 7.224 75.328C6.872 75.7547 6.40267 76.064 5.816 76.256ZM1.688 75.664H4.136C4.81867 75.664 5.34667 75.504 5.72 75.184C6.09333 74.864 6.28 74.4213 6.28 73.856C6.28 73.2907 6.09333 72.848 5.72 72.528C5.34667 72.208 4.808 72.048 4.104 72.048H1.688V75.664ZM4.264 80.8C4.98933 80.8 5.55467 80.6293 5.96 80.288C6.36533 79.9467 6.568 79.472 6.568 78.864C6.568 78.2453 6.35467 77.76 5.928 77.408C5.50133 77.0453 4.93067 76.864 4.216 76.864H1.688V80.8H4.264ZM13.8685 82.144C13.0472 82.144 12.3005 81.9573 11.6285 81.584C10.9672 81.2107 10.4445 80.6827 10.0605 80C9.68717 79.3067 9.5005 78.5067 9.5005 77.6C9.5005 76.704 9.6925 75.9147 10.0765 75.232C10.4712 74.5387 11.0045 74.0107 11.6765 73.648C12.3485 73.2747 13.1005 73.088 13.9325 73.088C14.7645 73.088 15.5165 73.2747 16.1885 73.648C16.8605 74.0107 17.3885 74.5333 17.7725 75.216C18.1672 75.8987 18.3645 76.6933 18.3645 77.6C18.3645 78.5067 18.1618 79.3067 17.7565 80C17.3618 80.6827 16.8232 81.2107 16.1405 81.584C15.4578 81.9573 14.7005 82.144 13.8685 82.144ZM13.8685 80.864C14.3912 80.864 14.8818 80.7413 15.3405 80.496C15.7992 80.2507 16.1672 79.8827 16.4445 79.392C16.7325 78.9013 16.8765 78.304 16.8765 77.6C16.8765 76.896 16.7378 76.2987 16.4605 75.808C16.1832 75.3173 15.8205 74.9547 15.3725 74.72C14.9245 74.4747 14.4392 74.352 13.9165 74.352C13.3832 74.352 12.8925 74.4747 12.4445 74.72C12.0072 74.9547 11.6552 75.3173 11.3885 75.808C11.1218 76.2987 10.9885 76.896 10.9885 77.6C10.9885 78.3147 11.1165 78.9173 11.3725 79.408C11.6392 79.8987 11.9912 80.2667 12.4285 80.512C12.8658 80.7467 13.3458 80.864 13.8685 80.864ZM24.1029 82.144C23.2815 82.144 22.5349 81.9573 21.8629 81.584C21.2015 81.2107 20.6789 80.6827 20.2949 80C19.9215 79.3067 19.7349 78.5067 19.7349 77.6C19.7349 76.704 19.9269 75.9147 20.3109 75.232C20.7055 74.5387 21.2389 74.0107 21.9109 73.648C22.5829 73.2747 23.3349 73.088 24.1669 73.088C24.9989 73.088 25.7509 73.2747 26.4229 73.648C27.0949 74.0107 27.6229 74.5333 28.0069 75.216C28.4015 75.8987 28.5989 76.6933 28.5989 77.6C28.5989 78.5067 28.3962 79.3067 27.9909 80C27.5962 80.6827 27.0575 81.2107 26.3749 81.584C25.6922 81.9573 24.9349 82.144 24.1029 82.144ZM24.1029 80.864C24.6255 80.864 25.1162 80.7413 25.5749 80.496C26.0335 80.2507 26.4015 79.8827 26.6789 79.392C26.9669 78.9013 27.1109 78.304 27.1109 77.6C27.1109 76.896 26.9722 76.2987 26.6949 75.808C26.4175 75.3173 26.0549 74.9547 25.6069 74.72C25.1589 74.4747 24.6735 74.352 24.1509 74.352C23.6175 74.352 23.1269 74.4747 22.6789 74.72C22.2415 74.9547 21.8895 75.3173 21.6229 75.808C21.3562 76.2987 21.2229 76.896 21.2229 77.6C21.2229 78.3147 21.3509 78.9173 21.6069 79.408C21.8735 79.8987 22.2255 80.2667 22.6629 80.512C23.1002 80.7467 23.5802 80.864 24.1029 80.864ZM35.4093 82L31.9693 78.128V82H30.5133V70.16H31.9693V77.12L35.3453 73.232H37.3773L33.2493 77.6L37.3933 82H35.4093ZM39.4996 71.808C39.2223 71.808 38.9876 71.712 38.7956 71.52C38.6036 71.328 38.5076 71.0933 38.5076 70.816C38.5076 70.5387 38.6036 70.304 38.7956 70.112C38.9876 69.92 39.2223 69.824 39.4996 69.824C39.7663 69.824 39.9903 69.92 40.1716 70.112C40.3636 70.304 40.4596 70.5387 40.4596 70.816C40.4596 71.0933 40.3636 71.328 40.1716 71.52C39.9903 71.712 39.7663 71.808 39.4996 71.808ZM40.2036 73.232V82H38.7476V73.232H40.2036ZM46.9571 73.072C48.0238 73.072 48.8878 73.3973 49.5491 74.048C50.2105 74.688 50.5411 75.616 50.5411 76.832V82H49.1011V77.04C49.1011 76.1653 48.8825 75.4987 48.4451 75.04C48.0078 74.5707 47.4105 74.336 46.6531 74.336C45.8851 74.336 45.2718 74.576 44.8131 75.056C44.3651 75.536 44.1411 76.2347 44.1411 77.152V82H42.6851V73.232H44.1411V74.48C44.4291 74.032 44.8185 73.6853 45.3091 73.44C45.8105 73.1947 46.3598 73.072 46.9571 73.072ZM56.5355 73.088C57.2928 73.088 57.9542 73.2533 58.5195 73.584C59.0955 73.9147 59.5222 74.3307 59.7995 74.832V73.232H61.2715V82.192C61.2715 82.992 61.1008 83.7013 60.7595 84.32C60.4182 84.9493 59.9275 85.44 59.2875 85.792C58.6582 86.144 57.9222 86.32 57.0795 86.32C55.9275 86.32 54.9675 86.048 54.1995 85.504C53.4315 84.96 52.9782 84.2187 52.8395 83.28H54.2795C54.4395 83.8133 54.7702 84.24 55.2715 84.56C55.7728 84.8907 56.3755 85.056 57.0795 85.056C57.8795 85.056 58.5302 84.8053 59.0315 84.304C59.5435 83.8027 59.7995 83.0987 59.7995 82.192V80.352C59.5115 80.864 59.0848 81.2907 58.5195 81.632C57.9542 81.9733 57.2928 82.144 56.5355 82.144C55.7568 82.144 55.0475 81.952 54.4075 81.568C53.7782 81.184 53.2822 80.6453 52.9195 79.952C52.5568 79.2587 52.3755 78.4693 52.3755 77.584C52.3755 76.688 52.5568 75.904 52.9195 75.232C53.2822 74.5493 53.7782 74.0213 54.4075 73.648C55.0475 73.2747 55.7568 73.088 56.5355 73.088ZM59.7995 77.6C59.7995 76.9387 59.6662 76.3627 59.3995 75.872C59.1328 75.3813 58.7702 75.008 58.3115 74.752C57.8635 74.4853 57.3675 74.352 56.8235 74.352C56.2795 74.352 55.7835 74.48 55.3355 74.736C54.8875 74.992 54.5302 75.3653 54.2635 75.856C53.9968 76.3467 53.8635 76.9227 53.8635 77.584C53.8635 78.256 53.9968 78.8427 54.2635 79.344C54.5302 79.8347 54.8875 80.2133 55.3355 80.48C55.7835 80.736 56.2795 80.864 56.8235 80.864C57.3675 80.864 57.8635 80.736 58.3115 80.48C58.7702 80.2133 59.1328 79.8347 59.3995 79.344C59.6662 78.8427 59.7995 78.2613 59.7995 77.6ZM71.5336 82.112C70.7976 82.112 70.1363 81.984 69.5496 81.728C68.9736 81.4613 68.5203 81.0987 68.1896 80.64C67.859 80.1707 67.6883 79.632 67.6776 79.024H69.2296C69.283 79.5467 69.4963 79.9893 69.8696 80.352C70.2536 80.704 70.8083 80.88 71.5336 80.88C72.227 80.88 72.771 80.7093 73.1656 80.368C73.571 80.016 73.7736 79.568 73.7736 79.024C73.7736 78.5973 73.6563 78.2507 73.4216 77.984C73.187 77.7173 72.8936 77.5147 72.5416 77.376C72.1896 77.2373 71.715 77.088 71.1176 76.928C70.3816 76.736 69.7896 76.544 69.3416 76.352C68.9043 76.16 68.5256 75.8613 68.2056 75.456C67.8963 75.04 67.7416 74.4853 67.7416 73.792C67.7416 73.184 67.8963 72.6453 68.2056 72.176C68.515 71.7067 68.947 71.344 69.5016 71.088C70.067 70.832 70.7123 70.704 71.4376 70.704C72.483 70.704 73.3363 70.9653 73.9976 71.488C74.6696 72.0107 75.0483 72.704 75.1336 73.568H73.5336C73.4803 73.1413 73.2563 72.768 72.8616 72.448C72.467 72.1173 71.9443 71.952 71.2936 71.952C70.6856 71.952 70.1896 72.112 69.8056 72.432C69.4216 72.7413 69.2296 73.1787 69.2296 73.744C69.2296 74.1493 69.3416 74.48 69.5656 74.736C69.8003 74.992 70.083 75.1893 70.4136 75.328C70.755 75.456 71.2296 75.6053 71.8376 75.776C72.5736 75.9787 73.1656 76.1813 73.6136 76.384C74.0616 76.576 74.4456 76.88 74.7656 77.296C75.0856 77.7013 75.2456 78.256 75.2456 78.96C75.2456 79.504 75.1016 80.016 74.8136 80.496C74.5256 80.976 74.099 81.3653 73.5336 81.664C72.9683 81.9627 72.3016 82.112 71.5336 82.112ZM85.1643 73.232V82H83.7083V80.704C83.4309 81.152 83.0416 81.504 82.5403 81.76C82.0496 82.0053 81.5056 82.128 80.9083 82.128C80.2256 82.128 79.6123 81.9893 79.0683 81.712C78.5243 81.424 78.0923 80.9973 77.7723 80.432C77.4629 79.8667 77.3083 79.1787 77.3083 78.368V73.232H78.7483V78.176C78.7483 79.04 78.9669 79.7067 79.4043 80.176C79.8416 80.6347 80.4389 80.864 81.1963 80.864C81.9749 80.864 82.5883 80.624 83.0363 80.144C83.4843 79.664 83.7083 78.9653 83.7083 78.048V73.232H85.1643ZM98.1666 73.072C98.8493 73.072 99.4573 73.216 99.9906 73.504C100.524 73.7813 100.945 74.2027 101.255 74.768C101.564 75.3333 101.719 76.0213 101.719 76.832V82H100.279V77.04C100.279 76.1653 100.06 75.4987 99.6226 75.04C99.196 74.5707 98.6146 74.336 97.8786 74.336C97.1213 74.336 96.5186 74.5813 96.0706 75.072C95.6226 75.552 95.3986 76.2507 95.3986 77.168V82H93.9586V77.04C93.9586 76.1653 93.74 75.4987 93.3026 75.04C92.876 74.5707 92.2946 74.336 91.5586 74.336C90.8013 74.336 90.1986 74.5813 89.7506 75.072C89.3026 75.552 89.0786 76.2507 89.0786 77.168V82H87.6226V73.232H89.0786V74.496C89.3666 74.0373 89.7506 73.6853 90.2306 73.44C90.7213 73.1947 91.26 73.072 91.8466 73.072C92.5826 73.072 93.2333 73.2373 93.7986 73.568C94.364 73.8987 94.7853 74.384 95.0626 75.024C95.308 74.4053 95.7133 73.9253 96.2786 73.584C96.844 73.2427 97.4733 73.072 98.1666 73.072ZM114.651 73.072C115.334 73.072 115.942 73.216 116.475 73.504C117.008 73.7813 117.43 74.2027 117.739 74.768C118.048 75.3333 118.203 76.0213 118.203 76.832V82H116.763V77.04C116.763 76.1653 116.544 75.4987 116.107 75.04C115.68 74.5707 115.099 74.336 114.363 74.336C113.606 74.336 113.003 74.5813 112.555 75.072C112.107 75.552 111.883 76.2507 111.883 77.168V82H110.443V77.04C110.443 76.1653 110.224 75.4987 109.787 75.04C109.36 74.5707 108.779 74.336 108.043 74.336C107.286 74.336 106.683 74.5813 106.235 75.072C105.787 75.552 105.563 76.2507 105.563 77.168V82H104.107V73.232H105.563V74.496C105.851 74.0373 106.235 73.6853 106.715 73.44C107.206 73.1947 107.744 73.072 108.331 73.072C109.067 73.072 109.718 73.2373 110.283 73.568C110.848 73.8987 111.27 74.384 111.547 75.024C111.792 74.4053 112.198 73.9253 112.763 73.584C113.328 73.2427 113.958 73.072 114.651 73.072ZM120.047 77.584C120.047 76.688 120.229 75.904 120.591 75.232C120.954 74.5493 121.45 74.0213 122.079 73.648C122.719 73.2747 123.429 73.088 124.207 73.088C124.975 73.088 125.642 73.2533 126.207 73.584C126.773 73.9147 127.194 74.3307 127.471 74.832V73.232H128.943V82H127.471V80.368C127.183 80.88 126.751 81.3067 126.175 81.648C125.61 81.9787 124.949 82.144 124.191 82.144C123.413 82.144 122.709 81.952 122.079 81.568C121.45 81.184 120.954 80.6453 120.591 79.952C120.229 79.2587 120.047 78.4693 120.047 77.584ZM127.471 77.6C127.471 76.9387 127.338 76.3627 127.071 75.872C126.805 75.3813 126.442 75.008 125.983 74.752C125.535 74.4853 125.039 74.352 124.495 74.352C123.951 74.352 123.455 74.48 123.007 74.736C122.559 74.992 122.202 75.3653 121.935 75.856C121.669 76.3467 121.535 76.9227 121.535 77.584C121.535 78.256 121.669 78.8427 121.935 79.344C122.202 79.8347 122.559 80.2133 123.007 80.48C123.455 80.736 123.951 80.864 124.495 80.864C125.039 80.864 125.535 80.736 125.983 80.48C126.442 80.2133 126.805 79.8347 127.071 79.344C127.338 78.8427 127.471 78.2613 127.471 77.6ZM132.86 74.656C133.116 74.1547 133.479 73.7653 133.948 73.488C134.428 73.2107 135.009 73.072 135.692 73.072V74.576H135.308C133.676 74.576 132.86 75.4613 132.86 77.232V82H131.404V73.232H132.86V74.656ZM144.925 73.232L139.645 86.128H138.141L139.869 81.904L136.333 73.232H137.949L140.701 80.336L143.421 73.232H144.925Z" fill="black"/>
</svg>
