<svg width="71" height="88" viewBox="0 0 71 88" fill="none" xmlns="http://www.w3.org/2000/svg">
<rect x="9" width="53" height="50" rx="25" fill="#4567B7"/>
<path d="M31.38 22.408C31.4333 21.3413 31.8067 20.52 32.5 19.944C33.204 19.3573 34.1267 19.064 35.268 19.064C36.0467 19.064 36.7133 19.2027 37.268 19.48C37.8227 19.7467 38.2387 20.1147 38.516 20.584C38.804 21.0427 38.948 21.5653 38.948 22.152C38.948 22.824 38.772 23.3947 38.42 23.864C38.0787 24.3227 37.668 24.632 37.188 24.792V24.856C37.8067 25.048 38.2867 25.3893 38.628 25.88C38.98 26.3707 39.156 27 39.156 27.768C39.156 28.408 39.0067 28.9787 38.708 29.48C38.42 29.9813 37.988 30.376 37.412 30.664C36.8467 30.9413 36.164 31.08 35.364 31.08C34.1587 31.08 33.1773 30.776 32.42 30.168C31.6627 29.56 31.2627 28.664 31.22 27.48H33.396C33.4173 28.0027 33.5933 28.424 33.924 28.744C34.2653 29.0533 34.7293 29.208 35.316 29.208C35.86 29.208 36.276 29.0587 36.564 28.76C36.8627 28.4507 37.012 28.056 37.012 27.576C37.012 26.936 36.8093 26.4773 36.404 26.2C35.9987 25.9227 35.3693 25.784 34.516 25.784H34.052V23.944H34.516C36.0307 23.944 36.788 23.4373 36.788 22.424C36.788 21.9653 36.6493 21.608 36.372 21.352C36.1053 21.096 35.716 20.968 35.204 20.968C34.7027 20.968 34.3133 21.1067 34.036 21.384C33.7693 21.6507 33.6147 21.992 33.572 22.408H31.38Z" fill="white"/>
<path d="M8.188 74.112C8.188 75.04 7.868 75.8133 7.228 76.432C6.59867 77.04 5.63333 77.344 4.332 77.344H2.188V82H0.732V70.848H4.332C5.59067 70.848 6.54533 71.152 7.196 71.76C7.85733 72.368 8.188 73.152 8.188 74.112ZM4.332 76.144C5.14267 76.144 5.74 75.968 6.124 75.616C6.508 75.264 6.7 74.7627 6.7 74.112C6.7 72.736 5.91067 72.048 4.332 72.048H2.188V76.144H4.332ZM9.45363 77.584C9.45363 76.688 9.63496 75.904 9.99763 75.232C10.3603 74.5493 10.8563 74.0213 11.4856 73.648C12.1256 73.2747 12.835 73.088 13.6136 73.088C14.3816 73.088 15.0483 73.2533 15.6136 73.584C16.179 73.9147 16.6003 74.3307 16.8776 74.832V73.232H18.3496V82H16.8776V80.368C16.5896 80.88 16.1576 81.3067 15.5816 81.648C15.0163 81.9787 14.355 82.144 13.5976 82.144C12.819 82.144 12.115 81.952 11.4856 81.568C10.8563 81.184 10.3603 80.6453 9.99763 79.952C9.63496 79.2587 9.45363 78.4693 9.45363 77.584ZM16.8776 77.6C16.8776 76.9387 16.7443 76.3627 16.4776 75.872C16.211 75.3813 15.8483 75.008 15.3896 74.752C14.9416 74.4853 14.4456 74.352 13.9016 74.352C13.3576 74.352 12.8616 74.48 12.4136 74.736C11.9656 74.992 11.6083 75.3653 11.3416 75.856C11.075 76.3467 10.9416 76.9227 10.9416 77.584C10.9416 78.256 11.075 78.8427 11.3416 79.344C11.6083 79.8347 11.9656 80.2133 12.4136 80.48C12.8616 80.736 13.3576 80.864 13.9016 80.864C14.4456 80.864 14.9416 80.736 15.3896 80.48C15.8483 80.2133 16.211 79.8347 16.4776 79.344C16.7443 78.8427 16.8776 78.2613 16.8776 77.6ZM28.3621 73.232L23.0821 86.128H21.5781L23.3061 81.904L19.7701 73.232H21.3861L24.1381 80.336L26.8581 73.232H28.3621ZM40.3698 73.072C41.0524 73.072 41.6604 73.216 42.1938 73.504C42.7271 73.7813 43.1484 74.2027 43.4578 74.768C43.7671 75.3333 43.9218 76.0213 43.9218 76.832V82H42.4818V77.04C42.4818 76.1653 42.2631 75.4987 41.8258 75.04C41.3991 74.5707 40.8178 74.336 40.0818 74.336C39.3244 74.336 38.7218 74.5813 38.2738 75.072C37.8258 75.552 37.6018 76.2507 37.6018 77.168V82H36.1618V77.04C36.1618 76.1653 35.9431 75.4987 35.5058 75.04C35.0791 74.5707 34.4978 74.336 33.7618 74.336C33.0044 74.336 32.4018 74.5813 31.9538 75.072C31.5058 75.552 31.2818 76.2507 31.2818 77.168V82H29.8258V73.232H31.2818V74.496C31.5698 74.0373 31.9538 73.6853 32.4338 73.44C32.9244 73.1947 33.4631 73.072 34.0498 73.072C34.7858 73.072 35.4364 73.2373 36.0018 73.568C36.5671 73.8987 36.9884 74.384 37.2658 75.024C37.5111 74.4053 37.9164 73.9253 38.4818 73.584C39.0471 73.2427 39.6764 73.072 40.3698 73.072ZM54.3101 77.28C54.3101 77.5573 54.2941 77.8507 54.2621 78.16H47.2541C47.3075 79.024 47.6008 79.7013 48.1341 80.192C48.6781 80.672 49.3341 80.912 50.1021 80.912C50.7315 80.912 51.2541 80.768 51.6701 80.48C52.0968 80.1813 52.3955 79.7867 52.5661 79.296H54.1341C53.8995 80.1387 53.4301 80.8267 52.7261 81.36C52.0221 81.8827 51.1475 82.144 50.1021 82.144C49.2701 82.144 48.5235 81.9573 47.8621 81.584C47.2115 81.2107 46.6995 80.6827 46.3261 80C45.9528 79.3067 45.7661 78.5067 45.7661 77.6C45.7661 76.6933 45.9475 75.8987 46.3101 75.216C46.6728 74.5333 47.1795 74.0107 47.8301 73.648C48.4915 73.2747 49.2488 73.088 50.1021 73.088C50.9341 73.088 51.6701 73.2693 52.3101 73.632C52.9501 73.9947 53.4408 74.496 53.7821 75.136C54.1341 75.7653 54.3101 76.48 54.3101 77.28ZM52.8061 76.976C52.8061 76.4213 52.6835 75.9467 52.4381 75.552C52.1928 75.1467 51.8568 74.8427 51.4301 74.64C51.0141 74.4267 50.5501 74.32 50.0381 74.32C49.3021 74.32 48.6728 74.5547 48.1501 75.024C47.6381 75.4933 47.3448 76.144 47.2701 76.976H52.8061ZM60.504 73.072C61.5707 73.072 62.4347 73.3973 63.096 74.048C63.7573 74.688 64.088 75.616 64.088 76.832V82H62.648V77.04C62.648 76.1653 62.4293 75.4987 61.992 75.04C61.5547 74.5707 60.9573 74.336 60.2 74.336C59.432 74.336 58.8187 74.576 58.36 75.056C57.912 75.536 57.688 76.2347 57.688 77.152V82H56.232V73.232H57.688V74.48C57.976 74.032 58.3653 73.6853 58.856 73.44C59.3573 73.1947 59.9067 73.072 60.504 73.072ZM68.2424 74.432V79.6C68.2424 80.0267 68.333 80.3307 68.5144 80.512C68.6957 80.6827 69.0104 80.768 69.4584 80.768H70.5304V82H69.2184C68.4077 82 67.7997 81.8133 67.3944 81.44C66.989 81.0667 66.7864 80.4533 66.7864 79.6V74.432H65.6504V73.232H66.7864V71.024H68.2424V73.232H70.5304V74.432H68.2424Z" fill="black"/>
</svg>
