<svg width="79" height="88" viewBox="0 0 79 88" fill="none" xmlns="http://www.w3.org/2000/svg">
<rect x="13" width="53" height="50" rx="25" fill="black"/>
<path d="M34.752 28.728V26.968L39.984 19.48H42.592V26.776H44V28.728H42.592V31H40.352V28.728H34.752ZM40.496 21.88L37.216 26.776H40.496V21.88Z" fill="white"/>
<path d="M0.188 76.416C0.188 75.328 0.433333 74.352 0.924 73.488C1.41467 72.6133 2.08133 71.9307 2.924 71.44C3.77733 70.9493 4.72133 70.704 5.756 70.704C6.972 70.704 8.03333 70.9973 8.94 71.584C9.84667 72.1707 10.508 73.0027 10.924 74.08H9.18C8.87067 73.408 8.42267 72.8907 7.836 72.528C7.26 72.1653 6.56667 71.984 5.756 71.984C4.97733 71.984 4.27867 72.1653 3.66 72.528C3.04133 72.8907 2.556 73.408 2.204 74.08C1.852 74.7413 1.676 75.52 1.676 76.416C1.676 77.3013 1.852 78.08 2.204 78.752C2.556 79.4133 3.04133 79.9253 3.66 80.288C4.27867 80.6507 4.97733 80.832 5.756 80.832C6.56667 80.832 7.26 80.656 7.836 80.304C8.42267 79.9413 8.87067 79.424 9.18 78.752H10.924C10.508 79.8187 9.84667 80.6453 8.94 81.232C8.03333 81.808 6.972 82.096 5.756 82.096C4.72133 82.096 3.77733 81.856 2.924 81.376C2.08133 80.8853 1.41467 80.208 0.924 79.344C0.433333 78.48 0.188 77.504 0.188 76.416ZM16.9154 82.144C16.094 82.144 15.3474 81.9573 14.6754 81.584C14.014 81.2107 13.4914 80.6827 13.1074 80C12.734 79.3067 12.5474 78.5067 12.5474 77.6C12.5474 76.704 12.7394 75.9147 13.1234 75.232C13.518 74.5387 14.0514 74.0107 14.7234 73.648C15.3954 73.2747 16.1474 73.088 16.9794 73.088C17.8114 73.088 18.5634 73.2747 19.2354 73.648C19.9074 74.0107 20.4354 74.5333 20.8194 75.216C21.214 75.8987 21.4114 76.6933 21.4114 77.6C21.4114 78.5067 21.2087 79.3067 20.8034 80C20.4087 80.6827 19.87 81.2107 19.1874 81.584C18.5047 81.9573 17.7474 82.144 16.9154 82.144ZM16.9154 80.864C17.438 80.864 17.9287 80.7413 18.3874 80.496C18.846 80.2507 19.214 79.8827 19.4914 79.392C19.7794 78.9013 19.9234 78.304 19.9234 77.6C19.9234 76.896 19.7847 76.2987 19.5074 75.808C19.23 75.3173 18.8674 74.9547 18.4194 74.72C17.9714 74.4747 17.486 74.352 16.9634 74.352C16.43 74.352 15.9394 74.4747 15.4914 74.72C15.054 74.9547 14.702 75.3173 14.4354 75.808C14.1687 76.2987 14.0354 76.896 14.0354 77.6C14.0354 78.3147 14.1634 78.9173 14.4194 79.408C14.686 79.8987 15.038 80.2667 15.4754 80.512C15.9127 80.7467 16.3927 80.864 16.9154 80.864ZM33.8698 73.072C34.5524 73.072 35.1604 73.216 35.6938 73.504C36.2271 73.7813 36.6484 74.2027 36.9578 74.768C37.2671 75.3333 37.4218 76.0213 37.4218 76.832V82H35.9818V77.04C35.9818 76.1653 35.7631 75.4987 35.3258 75.04C34.8991 74.5707 34.3178 74.336 33.5818 74.336C32.8244 74.336 32.2218 74.5813 31.7738 75.072C31.3258 75.552 31.1018 76.2507 31.1018 77.168V82H29.6618V77.04C29.6618 76.1653 29.4431 75.4987 29.0058 75.04C28.5791 74.5707 27.9978 74.336 27.2618 74.336C26.5044 74.336 25.9018 74.5813 25.4538 75.072C25.0058 75.552 24.7818 76.2507 24.7818 77.168V82H23.3258V73.232H24.7818V74.496C25.0698 74.0373 25.4538 73.6853 25.9338 73.44C26.4244 73.1947 26.9631 73.072 27.5498 73.072C28.2858 73.072 28.9364 73.2373 29.5018 73.568C30.0671 73.8987 30.4884 74.384 30.7658 75.024C31.0111 74.4053 31.4164 73.9253 31.9818 73.584C32.5471 73.2427 33.1764 73.072 33.8698 73.072ZM41.2661 74.848C41.5541 74.3467 41.9808 73.9307 42.5461 73.6C43.1221 73.2587 43.7888 73.088 44.5461 73.088C45.3248 73.088 46.0288 73.2747 46.6581 73.648C47.2981 74.0213 47.7995 74.5493 48.1621 75.232C48.5248 75.904 48.7061 76.688 48.7061 77.584C48.7061 78.4693 48.5248 79.2587 48.1621 79.952C47.7995 80.6453 47.2981 81.184 46.6581 81.568C46.0288 81.952 45.3248 82.144 44.5461 82.144C43.7995 82.144 43.1381 81.9787 42.5621 81.648C41.9968 81.3067 41.5648 80.8853 41.2661 80.384V86.16H39.8101V73.232H41.2661V74.848ZM47.2181 77.584C47.2181 76.9227 47.0848 76.3467 46.8181 75.856C46.5515 75.3653 46.1888 74.992 45.7301 74.736C45.2821 74.48 44.7861 74.352 44.2421 74.352C43.7088 74.352 43.2128 74.4853 42.7541 74.752C42.3061 75.008 41.9435 75.3867 41.6661 75.888C41.3995 76.3787 41.2661 76.9493 41.2661 77.6C41.2661 78.2613 41.3995 78.8427 41.6661 79.344C41.9435 79.8347 42.3061 80.2133 42.7541 80.48C43.2128 80.736 43.7088 80.864 44.2421 80.864C44.7861 80.864 45.2821 80.736 45.7301 80.48C46.1888 80.2133 46.5515 79.8347 46.8181 79.344C47.0848 78.8427 47.2181 78.256 47.2181 77.584ZM52.0786 70.16V82H50.6226V70.16H52.0786ZM62.5601 77.28C62.5601 77.5573 62.5441 77.8507 62.5121 78.16H55.5041C55.5575 79.024 55.8508 79.7013 56.3841 80.192C56.9281 80.672 57.5841 80.912 58.3521 80.912C58.9815 80.912 59.5041 80.768 59.9201 80.48C60.3468 80.1813 60.6455 79.7867 60.8161 79.296H62.3841C62.1495 80.1387 61.6801 80.8267 60.9761 81.36C60.2721 81.8827 59.3975 82.144 58.3521 82.144C57.5201 82.144 56.7735 81.9573 56.1121 81.584C55.4615 81.2107 54.9495 80.6827 54.5761 80C54.2028 79.3067 54.0161 78.5067 54.0161 77.6C54.0161 76.6933 54.1975 75.8987 54.5601 75.216C54.9228 74.5333 55.4295 74.0107 56.0801 73.648C56.7415 73.2747 57.4988 73.088 58.3521 73.088C59.1841 73.088 59.9201 73.2693 60.5601 73.632C61.2001 73.9947 61.6908 74.496 62.0321 75.136C62.3841 75.7653 62.5601 76.48 62.5601 77.28ZM61.0561 76.976C61.0561 76.4213 60.9335 75.9467 60.6881 75.552C60.4428 75.1467 60.1068 74.8427 59.6801 74.64C59.2641 74.4267 58.8001 74.32 58.2881 74.32C57.5521 74.32 56.9228 74.5547 56.4001 75.024C55.8881 75.4933 55.5948 76.144 55.5201 76.976H61.0561ZM66.258 74.432V79.6C66.258 80.0267 66.3487 80.3307 66.53 80.512C66.7113 80.6827 67.026 80.768 67.474 80.768H68.546V82H67.234C66.4233 82 65.8153 81.8133 65.41 81.44C65.0047 81.0667 64.802 80.4533 64.802 79.6V74.432H63.666V73.232H64.802V71.024H66.258V73.232H68.546V74.432H66.258ZM78.3101 77.28C78.3101 77.5573 78.2941 77.8507 78.2621 78.16H71.2541C71.3075 79.024 71.6008 79.7013 72.1341 80.192C72.6781 80.672 73.3341 80.912 74.1021 80.912C74.7315 80.912 75.2541 80.768 75.6701 80.48C76.0968 80.1813 76.3955 79.7867 76.5661 79.296H78.1341C77.8995 80.1387 77.4301 80.8267 76.7261 81.36C76.0221 81.8827 75.1475 82.144 74.1021 82.144C73.2701 82.144 72.5235 81.9573 71.8621 81.584C71.2115 81.2107 70.6995 80.6827 70.3261 80C69.9528 79.3067 69.7661 78.5067 69.7661 77.6C69.7661 76.6933 69.9475 75.8987 70.3101 75.216C70.6728 74.5333 71.1795 74.0107 71.8301 73.648C72.4915 73.2747 73.2488 73.088 74.1021 73.088C74.9341 73.088 75.6701 73.2693 76.3101 73.632C76.9501 73.9947 77.4408 74.496 77.7821 75.136C78.1341 75.7653 78.3101 76.48 78.3101 77.28ZM76.8061 76.976C76.8061 76.4213 76.6835 75.9467 76.4381 75.552C76.1928 75.1467 75.8568 74.8427 75.4301 74.64C75.0141 74.4267 74.5501 74.32 74.0381 74.32C73.3021 74.32 72.6728 74.5547 72.1501 75.024C71.6381 75.4933 71.3448 76.144 71.2701 76.976H76.8061Z" fill="black"/>
</svg>
