<svg width="36" height="36" viewBox="0 0 36 36" fill="none" xmlns="http://www.w3.org/2000/svg">
<g clip-path="url(#clip0_610_3343)">
<path d="M15.61 8.33998L6 18L15.61 27.66C15.6968 27.774 15.8071 27.8679 15.9333 27.9356C16.0596 28.0033 16.1989 28.043 16.3419 28.0521C16.4849 28.0612 16.6281 28.0395 16.762 27.9885C16.8958 27.9374 17.0172 27.8582 17.1177 27.7562C17.2183 27.6542 17.2958 27.5317 17.3449 27.3972C17.3941 27.2626 17.4137 27.119 17.4025 26.9762C17.3914 26.8334 17.3497 26.6946 17.2802 26.5693C17.2108 26.444 17.1152 26.3351 17 26.25L9.81 19H28.94C29.2052 19 29.4596 18.8946 29.6471 18.7071C29.8346 18.5196 29.94 18.2652 29.94 18C29.94 17.7348 29.8346 17.4804 29.6471 17.2929C29.4596 17.1053 29.2052 17 28.94 17H9.81L17 9.74998C17.187 9.56168 17.2915 9.30681 17.2906 9.04144C17.2896 8.77608 17.1833 8.52196 16.995 8.33498C16.8067 8.148 16.5518 8.04348 16.2865 8.04442C16.0211 8.04536 15.767 8.15168 15.58 8.33998H15.61Z" fill="#4567B7"/>
</g>
<defs>
<clipPath id="clip0_610_3343">
<rect width="36" height="36" fill="white" transform="matrix(0 -1 1 0 0 36)"/>
</clipPath>
</defs>
</svg>
