<svg width="106" height="106" viewBox="0 0 106 106" fill="none" xmlns="http://www.w3.org/2000/svg">
<circle cx="53" cy="53" r="53" fill="white"/>
<path d="M52.896 28.792C57.3333 28.792 60.896 30.008 63.584 32.44C66.3147 34.8293 67.68 38.136 67.68 42.36C67.68 46.5413 66.336 49.7413 63.648 51.96C60.96 54.136 57.3973 55.224 52.96 55.224L52.704 60.152H44.832L44.512 49.272H47.392C51.104 49.272 53.9627 48.7813 55.968 47.8C57.9733 46.8187 58.976 45.0267 58.976 42.424C58.976 40.5467 58.4213 39.0533 57.312 37.944C56.2453 36.8347 54.7733 36.28 52.896 36.28C50.9333 36.28 49.3973 36.8133 48.288 37.88C47.2213 38.9467 46.688 40.4187 46.688 42.296H38.24C38.1973 39.6933 38.752 37.368 39.904 35.32C41.056 33.272 42.7413 31.672 44.96 30.52C47.2213 29.368 49.8667 28.792 52.896 28.792ZM48.736 75.448C47.1147 75.448 45.7707 74.9573 44.704 73.976C43.68 72.952 43.168 71.6933 43.168 70.2C43.168 68.7067 43.68 67.4693 44.704 66.488C45.7707 65.464 47.1147 64.952 48.736 64.952C50.3147 64.952 51.616 65.464 52.64 66.488C53.664 67.4693 54.176 68.7067 54.176 70.2C54.176 71.6933 53.664 72.952 52.64 73.976C51.616 74.9573 50.3147 75.448 48.736 75.448Z" fill="black"/>
</svg>
