<svg width="21" height="30" viewBox="0 0 21 30" fill="none" xmlns="http://www.w3.org/2000/svg">
<path d="M10.4864 11.6544C8.62503 11.6544 7.10449 10.2315 7.10449 8.47142C7.10449 6.71134 8.62503 5.29669 10.4864 5.29669C12.3477 5.29669 13.8683 6.71956 13.8683 8.47965C13.8683 10.2397 12.3477 11.6544 10.4864 11.6544ZM10.4864 6.5304C9.35035 6.5304 8.4153 7.40221 8.4153 8.47965C8.4153 9.55708 9.34161 10.4289 10.4864 10.4289C11.6312 10.4289 12.5575 9.55708 12.5575 8.47965C12.5575 7.40221 11.6224 6.5304 10.4864 6.5304Z" fill="white"/>
<path d="M10.4865 18.7194C9.19315 18.7194 7.89108 18.2588 6.87738 17.3459C4.29945 15.0101 1.45063 11.2843 2.52549 6.85116C3.49549 2.82928 7.22693 1.02808 10.4865 1.02808C10.4865 1.02808 10.4865 1.02808 10.4952 1.02808C13.7548 1.02808 17.4862 2.82928 18.4562 6.85939C19.5223 11.2925 16.6735 15.0101 14.0956 17.3459C13.0819 18.2588 11.7798 18.7194 10.4865 18.7194ZM10.4865 2.26178C7.94351 2.26178 4.67522 3.53661 3.81009 7.12258C2.8663 10.9964 5.45297 14.3356 7.79495 16.4494C9.30675 17.8229 11.675 17.8229 13.1868 16.4494C15.52 14.3356 18.1067 10.9964 17.1804 7.12258C16.3065 3.53661 13.0295 2.26178 10.4865 2.26178Z" fill="white"/>
<path d="M2.97477 25.7392V21.456H3.47281V25.2939H5.37418V25.7392H2.97477ZM7.23746 22.4755C7.62028 22.4755 7.90446 22.5615 8.09 22.7333C8.27555 22.9052 8.36832 23.1796 8.36832 23.5566V25.7392H8.01383L7.92008 25.2646H7.89664C7.8068 25.3818 7.71305 25.4804 7.61539 25.5605C7.51774 25.6386 7.40446 25.6982 7.27555 25.7392C7.1486 25.7783 6.99235 25.7978 6.8068 25.7978C6.61149 25.7978 6.43766 25.7636 6.28531 25.6953C6.13492 25.6269 6.01578 25.5234 5.92789 25.3847C5.84196 25.246 5.79899 25.0703 5.79899 24.8574C5.79899 24.537 5.92594 24.291 6.17985 24.1191C6.43375 23.9472 6.82047 23.8535 7.34 23.8378L7.89371 23.8144V23.6181C7.89371 23.3408 7.83414 23.1464 7.715 23.0351C7.59586 22.9238 7.42789 22.8681 7.2111 22.8681C7.04313 22.8681 6.88297 22.8925 6.73063 22.9413C6.57828 22.9902 6.43375 23.0478 6.29703 23.1142L6.14762 22.7451C6.29215 22.6708 6.45817 22.6074 6.64567 22.5546C6.83317 22.5019 7.03043 22.4755 7.23746 22.4755ZM7.88785 24.1572L7.3986 24.1777C6.99821 24.1933 6.71598 24.2587 6.55192 24.374C6.38785 24.4892 6.30582 24.6523 6.30582 24.8632C6.30582 25.0468 6.36149 25.1826 6.47281 25.2704C6.58414 25.3583 6.7316 25.4023 6.9152 25.4023C7.20035 25.4023 7.43375 25.3232 7.61539 25.165C7.79703 25.0068 7.88785 24.7695 7.88785 24.4531V24.1572ZM10.2668 27.1806C9.84488 27.1806 9.51969 27.1015 9.29117 26.9433C9.06266 26.787 8.9484 26.5673 8.9484 26.2841C8.9484 26.0829 9.01188 25.9111 9.13883 25.7685C9.26774 25.6259 9.44547 25.5312 9.67203 25.4843C9.58805 25.4453 9.51578 25.3867 9.45524 25.3085C9.39664 25.2304 9.36735 25.1406 9.36735 25.039C9.36735 24.9218 9.39957 24.8193 9.46403 24.7314C9.53043 24.6415 9.63102 24.5556 9.76578 24.4736C9.59781 24.4052 9.4611 24.29 9.35563 24.1279C9.25211 23.9638 9.20035 23.7734 9.20035 23.5566C9.20035 23.3261 9.24821 23.1298 9.34391 22.9677C9.43961 22.8036 9.57828 22.6786 9.75992 22.5927C9.94156 22.5068 10.1613 22.4638 10.4191 22.4638C10.4757 22.4638 10.5324 22.4667 10.589 22.4726C10.6476 22.4765 10.7033 22.4833 10.756 22.4931C10.8088 22.5009 10.8547 22.5107 10.8937 22.5224H11.9953V22.8359L11.4035 22.9091C11.4621 22.9853 11.5109 23.0771 11.55 23.1845C11.589 23.2919 11.6086 23.4111 11.6086 23.5419C11.6086 23.8622 11.5002 24.1171 11.2834 24.3066C11.0666 24.4941 10.7687 24.5878 10.3898 24.5878C10.3 24.5878 10.2082 24.58 10.1144 24.5644C10.0187 24.6171 9.94547 24.6757 9.89469 24.7402C9.84586 24.8046 9.82145 24.8788 9.82145 24.9628C9.82145 25.0253 9.84 25.0751 9.87711 25.1122C9.91617 25.1494 9.97184 25.1767 10.0441 25.1943C10.1164 25.2099 10.2033 25.2177 10.3048 25.2177H10.8703C11.2199 25.2177 11.4875 25.291 11.673 25.4374C11.8605 25.5839 11.9543 25.7978 11.9543 26.079C11.9543 26.4345 11.8097 26.707 11.5207 26.8964C11.2316 27.0859 10.8136 27.1806 10.2668 27.1806ZM10.2814 26.7997C10.547 26.7997 10.7668 26.7724 10.9406 26.7177C11.1164 26.665 11.2472 26.5878 11.3332 26.4863C11.4211 26.3867 11.465 26.2675 11.465 26.1288C11.465 25.9999 11.4357 25.9023 11.3771 25.8359C11.3185 25.7714 11.2326 25.7285 11.1193 25.707C11.006 25.6835 10.8673 25.6718 10.7033 25.6718H10.1466C10.0021 25.6718 9.87613 25.6943 9.76871 25.7392C9.66129 25.7841 9.57828 25.8505 9.51969 25.9384C9.46305 26.0263 9.43473 26.1357 9.43473 26.2665C9.43473 26.4404 9.50797 26.5722 9.65446 26.662C9.80094 26.7538 10.0099 26.7997 10.2814 26.7997ZM10.4074 24.2333C10.6398 24.2333 10.8146 24.1747 10.9318 24.0576C11.049 23.9404 11.1076 23.7695 11.1076 23.5449C11.1076 23.3046 11.048 23.1249 10.9289 23.0058C10.8097 22.8847 10.6339 22.8242 10.4015 22.8242C10.1789 22.8242 10.007 22.8867 9.8859 23.0117C9.76676 23.1347 9.70719 23.3154 9.70719 23.5536C9.70719 23.7724 9.76774 23.9404 9.88883 24.0576C10.0099 24.1747 10.1828 24.2333 10.4074 24.2333ZM15.3966 24.1279C15.3966 24.3915 15.3625 24.6269 15.2941 24.8339C15.2257 25.041 15.1271 25.2158 14.9982 25.3583C14.8693 25.5009 14.713 25.6103 14.5295 25.6865C14.3478 25.7607 14.1418 25.7978 13.9113 25.7978C13.6964 25.7978 13.4992 25.7607 13.3195 25.6865C13.1418 25.6103 12.9875 25.5009 12.8566 25.3583C12.7277 25.2158 12.6271 25.041 12.5548 24.8339C12.4845 24.6269 12.4494 24.3915 12.4494 24.1279C12.4494 23.7763 12.5089 23.4775 12.6281 23.2314C12.7472 22.9833 12.9172 22.7949 13.1379 22.666C13.3605 22.5351 13.6252 22.4697 13.9318 22.4697C14.2248 22.4697 14.4806 22.5351 14.6994 22.666C14.9201 22.7968 15.091 22.9863 15.2121 23.2343C15.3351 23.4804 15.3966 23.7783 15.3966 24.1279ZM12.9533 24.1279C12.9533 24.3857 12.9875 24.6093 13.0558 24.7988C13.1242 24.9882 13.2297 25.1347 13.3722 25.2382C13.5148 25.3417 13.6984 25.3935 13.923 25.3935C14.1457 25.3935 14.3283 25.3417 14.4709 25.2382C14.6154 25.1347 14.7218 24.9882 14.7902 24.7988C14.8586 24.6093 14.8927 24.3857 14.8927 24.1279C14.8927 23.872 14.8586 23.6513 14.7902 23.4658C14.7218 23.2783 14.6164 23.1337 14.4738 23.0322C14.3312 22.9306 14.1466 22.8798 13.9201 22.8798C13.5861 22.8798 13.341 22.9902 13.1847 23.2109C13.0304 23.4316 12.9533 23.7372 12.9533 24.1279ZM18.3146 24.8603C18.3146 25.0654 18.2629 25.2382 18.1593 25.3788C18.0578 25.5175 17.9113 25.622 17.7199 25.6923C17.5304 25.7626 17.3039 25.7978 17.0402 25.7978C16.8156 25.7978 16.6213 25.7802 16.4572 25.7451C16.2931 25.7099 16.1496 25.6601 16.0265 25.5956V25.1474C16.1574 25.2119 16.3136 25.2704 16.4953 25.3232C16.6769 25.3759 16.8625 25.4023 17.0519 25.4023C17.3293 25.4023 17.5304 25.3574 17.6554 25.2675C17.7804 25.1777 17.8429 25.0556 17.8429 24.9013C17.8429 24.8134 17.8175 24.7363 17.7668 24.6699C17.7179 24.6015 17.6349 24.5361 17.5177 24.4736C17.4005 24.4091 17.2384 24.3388 17.0314 24.2626C16.8263 24.1845 16.6486 24.1074 16.4982 24.0312C16.3498 23.9531 16.2345 23.8583 16.1525 23.747C16.0724 23.6357 16.0324 23.4911 16.0324 23.3134C16.0324 23.0419 16.1418 22.8339 16.3605 22.6894C16.5812 22.5429 16.8703 22.4697 17.2277 22.4697C17.4211 22.4697 17.6017 22.4892 17.7697 22.5283C17.9396 22.5654 18.0978 22.6161 18.2443 22.6806L18.0802 23.0703C17.9474 23.0136 17.8058 22.9658 17.6554 22.9267C17.505 22.8876 17.3517 22.8681 17.1955 22.8681C16.9709 22.8681 16.798 22.9052 16.6769 22.9794C16.5578 23.0536 16.4982 23.1552 16.4982 23.2841C16.4982 23.3837 16.5255 23.4658 16.5802 23.5302C16.6369 23.5947 16.7267 23.6552 16.8498 23.7119C16.9728 23.7685 17.1349 23.8349 17.3361 23.9111C17.5373 23.9853 17.7111 24.0624 17.8576 24.1425C18.0041 24.2206 18.1164 24.3163 18.1945 24.4296C18.2746 24.541 18.3146 24.6845 18.3146 24.8603Z" fill="white"/>
</svg>
