<svg width="42" height="25" viewBox="0 0 42 25" fill="none" xmlns="http://www.w3.org/2000/svg">
<path d="M20.8571 15.6263C20.3971 15.6263 19.9638 15.393 19.6571 14.9863L18.6571 13.653C18.6371 13.6263 18.5571 13.5863 18.5171 13.5863H18.1904C15.4104 13.5863 13.6904 12.833 13.6904 9.08634V5.75301C13.6904 2.80634 15.2438 1.25301 18.1904 1.25301H22.1904C22.4638 1.25301 22.6904 1.47967 22.6904 1.75301C22.6904 2.02634 22.4638 2.25301 22.1904 2.25301H18.1904C15.8038 2.25301 14.6904 3.36634 14.6904 5.75301V9.08634C14.6904 12.0997 15.7238 12.5863 18.1904 12.5863H18.5238C18.8638 12.5863 19.2504 12.7797 19.4571 13.053L20.4571 14.3863C20.6904 14.693 21.0238 14.693 21.2571 14.3863L22.2571 13.053C22.4771 12.7597 22.8238 12.5863 23.1904 12.5863H23.5238C25.9104 12.5863 27.0238 11.473 27.0238 9.08634V7.08634C27.0238 6.81301 27.2504 6.58634 27.5238 6.58634C27.7971 6.58634 28.0238 6.81301 28.0238 7.08634V9.08634C28.0238 12.033 26.4704 13.5863 23.5238 13.5863H23.1904C23.1371 13.5863 23.0904 13.613 23.0571 13.653L22.0571 14.9863C21.7504 15.393 21.3171 15.6263 20.8571 15.6263Z" fill="white"/>
<path d="M20.8571 8.41968C20.4838 8.41968 20.1904 8.11968 20.1904 7.75302C20.1904 7.38635 20.4904 7.08635 20.8571 7.08635C21.2238 7.08635 21.5238 7.38635 21.5238 7.75302C21.5238 8.11968 21.2304 8.41968 20.8571 8.41968Z" fill="white"/>
<path d="M23.5236 8.41968C23.1503 8.41968 22.8569 8.11968 22.8569 7.75302C22.8569 7.38635 23.1569 7.08635 23.5236 7.08635C23.8903 7.08635 24.1903 7.38635 24.1903 7.75302C24.1903 8.11968 23.8969 8.41968 23.5236 8.41968Z" fill="white"/>
<path d="M18.1901 8.41968C17.8168 8.41968 17.5234 8.11968 17.5234 7.75302C17.5234 7.38635 17.8234 7.08635 18.1901 7.08635C18.5568 7.08635 18.8568 7.38635 18.8568 7.75302C18.8568 8.11968 18.5634 8.41968 18.1901 8.41968Z" fill="white"/>
<path d="M25.8571 5.58634C24.6638 5.58634 23.6904 4.61301 23.6904 3.41967C23.6904 2.22634 24.6638 1.25301 25.8571 1.25301C27.0504 1.25301 28.0238 2.22634 28.0238 3.41967C28.0238 4.61301 27.0504 5.58634 25.8571 5.58634ZM25.8571 2.25301C25.2171 2.25301 24.6904 2.77967 24.6904 3.41967C24.6904 4.05967 25.2171 4.58634 25.8571 4.58634C26.4971 4.58634 27.0238 4.05967 27.0238 3.41967C27.0238 2.77967 26.4971 2.25301 25.8571 2.25301Z" fill="white"/>
<path d="M10.8267 22.4197L9.38818 18.6287H9.36475C9.37256 18.7087 9.37939 18.8064 9.38525 18.9216C9.39111 19.0369 9.396 19.1628 9.3999 19.2996C9.40381 19.4343 9.40576 19.572 9.40576 19.7126V22.4197H8.94287V18.1365H9.68115L11.0376 21.699H11.0581L12.4351 18.1365H13.1675V22.4197H12.6753V19.6775C12.6753 19.5505 12.6772 19.4236 12.6812 19.2966C12.6851 19.1677 12.6899 19.0466 12.6958 18.9333C12.7017 18.8181 12.7075 18.7185 12.7134 18.6345H12.6899L11.2339 22.4197H10.8267ZM15.5024 19.1501C15.7759 19.1501 16.0103 19.2107 16.2056 19.3318C16.4009 19.4529 16.5503 19.6228 16.6538 19.8416C16.7573 20.0583 16.8091 20.3123 16.8091 20.6033V20.905H14.5913C14.5972 21.282 14.6909 21.5691 14.8726 21.7664C15.0542 21.9636 15.3101 22.0623 15.6401 22.0623C15.8433 22.0623 16.0229 22.0437 16.1792 22.0066C16.3354 21.9695 16.4976 21.9148 16.6655 21.8425V22.2703C16.5034 22.3425 16.3423 22.3953 16.1821 22.4285C16.0239 22.4617 15.8364 22.4783 15.6196 22.4783C15.311 22.4783 15.0415 22.4158 14.811 22.2908C14.5825 22.1638 14.4048 21.9783 14.2778 21.7341C14.1509 21.49 14.0874 21.1912 14.0874 20.8376C14.0874 20.4919 14.145 20.1931 14.2603 19.9412C14.3774 19.6873 14.5415 19.4919 14.7524 19.3552C14.9653 19.2185 15.2153 19.1501 15.5024 19.1501ZM15.4966 19.5486C15.2368 19.5486 15.0298 19.6335 14.8755 19.8035C14.7212 19.9734 14.6294 20.2107 14.6001 20.5154H16.2993C16.2974 20.324 16.2671 20.156 16.2085 20.0115C16.1519 19.865 16.0649 19.7517 15.9478 19.6716C15.8306 19.5896 15.6802 19.5486 15.4966 19.5486ZM19.7124 21.5408C19.7124 21.7458 19.6606 21.9187 19.5571 22.0593C19.4556 22.198 19.3091 22.3025 19.1177 22.3728C18.9282 22.4431 18.7017 22.4783 18.438 22.4783C18.2134 22.4783 18.019 22.4607 17.855 22.4255C17.6909 22.3904 17.5474 22.3406 17.4243 22.2761V21.8279C17.5552 21.8923 17.7114 21.9509 17.8931 22.0037C18.0747 22.0564 18.2603 22.0828 18.4497 22.0828C18.7271 22.0828 18.9282 22.0378 19.0532 21.948C19.1782 21.8582 19.2407 21.7361 19.2407 21.5818C19.2407 21.4939 19.2153 21.4167 19.1646 21.3503C19.1157 21.282 19.0327 21.2166 18.9155 21.1541C18.7983 21.0896 18.6362 21.0193 18.4292 20.9431C18.2241 20.865 18.0464 20.7878 17.896 20.7117C17.7476 20.6335 17.6323 20.5388 17.5503 20.4275C17.4702 20.3162 17.4302 20.1716 17.4302 19.9939C17.4302 19.7224 17.5396 19.5144 17.7583 19.3699C17.979 19.2234 18.2681 19.1501 18.6255 19.1501C18.8188 19.1501 18.9995 19.1697 19.1675 19.2087C19.3374 19.2458 19.4956 19.2966 19.6421 19.3611L19.478 19.7507C19.3452 19.6941 19.2036 19.6462 19.0532 19.6072C18.9028 19.5681 18.7495 19.5486 18.5933 19.5486C18.3687 19.5486 18.1958 19.5857 18.0747 19.6599C17.9556 19.7341 17.896 19.8357 17.896 19.9646C17.896 20.0642 17.9233 20.1462 17.978 20.2107C18.0347 20.2751 18.1245 20.3357 18.2476 20.3923C18.3706 20.449 18.5327 20.5154 18.7339 20.5916C18.9351 20.6658 19.1089 20.7429 19.2554 20.823C19.4019 20.9011 19.5142 20.9968 19.5923 21.1101C19.6724 21.2214 19.7124 21.365 19.7124 21.5408ZM22.5718 21.5408C22.5718 21.7458 22.52 21.9187 22.4165 22.0593C22.3149 22.198 22.1685 22.3025 21.9771 22.3728C21.7876 22.4431 21.561 22.4783 21.2974 22.4783C21.0728 22.4783 20.8784 22.4607 20.7144 22.4255C20.5503 22.3904 20.4067 22.3406 20.2837 22.2761V21.8279C20.4146 21.8923 20.5708 21.9509 20.7524 22.0037C20.9341 22.0564 21.1196 22.0828 21.3091 22.0828C21.5864 22.0828 21.7876 22.0378 21.9126 21.948C22.0376 21.8582 22.1001 21.7361 22.1001 21.5818C22.1001 21.4939 22.0747 21.4167 22.0239 21.3503C21.9751 21.282 21.8921 21.2166 21.7749 21.1541C21.6577 21.0896 21.4956 21.0193 21.2886 20.9431C21.0835 20.865 20.9058 20.7878 20.7554 20.7117C20.6069 20.6335 20.4917 20.5388 20.4097 20.4275C20.3296 20.3162 20.2896 20.1716 20.2896 19.9939C20.2896 19.7224 20.3989 19.5144 20.6177 19.3699C20.8384 19.2234 21.1274 19.1501 21.4849 19.1501C21.6782 19.1501 21.8589 19.1697 22.0269 19.2087C22.1968 19.2458 22.355 19.2966 22.5015 19.3611L22.3374 19.7507C22.2046 19.6941 22.063 19.6462 21.9126 19.6072C21.7622 19.5681 21.6089 19.5486 21.4526 19.5486C21.228 19.5486 21.0552 19.5857 20.9341 19.6599C20.8149 19.7341 20.7554 19.8357 20.7554 19.9646C20.7554 20.0642 20.7827 20.1462 20.8374 20.2107C20.894 20.2751 20.9839 20.3357 21.1069 20.3923C21.23 20.449 21.3921 20.5154 21.5933 20.5916C21.7944 20.6658 21.9683 20.7429 22.1147 20.823C22.2612 20.9011 22.3735 20.9968 22.4517 21.1101C22.5317 21.2214 22.5718 21.365 22.5718 21.5408ZM24.5552 19.156C24.938 19.156 25.2222 19.2419 25.4077 19.4138C25.5933 19.5857 25.686 19.8601 25.686 20.2371V22.4197H25.3315L25.2378 21.9451H25.2144C25.1245 22.0623 25.0308 22.1609 24.9331 22.241C24.8354 22.3191 24.7222 22.3787 24.5933 22.4197C24.4663 22.4587 24.3101 22.4783 24.1245 22.4783C23.9292 22.4783 23.7554 22.4441 23.603 22.3757C23.4526 22.3074 23.3335 22.2039 23.2456 22.0652C23.1597 21.9265 23.1167 21.7507 23.1167 21.5378C23.1167 21.2175 23.2437 20.9714 23.4976 20.7996C23.7515 20.6277 24.1382 20.5339 24.6577 20.5183L25.2114 20.4949V20.2986C25.2114 20.0212 25.1519 19.8269 25.0327 19.7156C24.9136 19.6042 24.7456 19.5486 24.5288 19.5486C24.3608 19.5486 24.2007 19.573 24.0483 19.6218C23.896 19.6707 23.7515 19.7283 23.6147 19.7947L23.4653 19.4255C23.6099 19.3513 23.7759 19.2878 23.9634 19.2351C24.1509 19.1824 24.3481 19.156 24.5552 19.156ZM25.2056 20.8376L24.7163 20.8582C24.3159 20.8738 24.0337 20.9392 23.8696 21.0544C23.7056 21.1697 23.6235 21.3328 23.6235 21.5437C23.6235 21.7273 23.6792 21.863 23.7905 21.9509C23.9019 22.0388 24.0493 22.0828 24.2329 22.0828C24.5181 22.0828 24.7515 22.0037 24.9331 21.8455C25.1147 21.6873 25.2056 21.45 25.2056 21.1335V20.8376ZM27.5845 23.8611C27.1626 23.8611 26.8374 23.782 26.6089 23.6238C26.3804 23.4675 26.2661 23.2478 26.2661 22.9646C26.2661 22.7634 26.3296 22.5916 26.4565 22.449C26.5854 22.3064 26.7632 22.2117 26.9897 22.1648C26.9058 22.1257 26.8335 22.0671 26.7729 21.989C26.7144 21.9109 26.6851 21.821 26.6851 21.7195C26.6851 21.6023 26.7173 21.4998 26.7817 21.4119C26.8481 21.322 26.9487 21.2361 27.0835 21.1541C26.9155 21.0857 26.7788 20.9705 26.6733 20.8083C26.5698 20.6443 26.5181 20.4539 26.5181 20.2371C26.5181 20.0066 26.5659 19.8103 26.6616 19.6482C26.7573 19.4841 26.896 19.3591 27.0776 19.2732C27.2593 19.1873 27.479 19.1443 27.7368 19.1443C27.7935 19.1443 27.8501 19.1472 27.9067 19.1531C27.9653 19.157 28.021 19.1638 28.0737 19.1736C28.1265 19.1814 28.1724 19.1912 28.2114 19.2029H29.313V19.5164L28.7212 19.5896C28.7798 19.6658 28.8286 19.7576 28.8677 19.865C28.9067 19.9724 28.9263 20.0916 28.9263 20.2224C28.9263 20.5427 28.8179 20.7976 28.6011 20.9871C28.3843 21.1746 28.0864 21.2683 27.7075 21.2683C27.6177 21.2683 27.5259 21.2605 27.4321 21.2449C27.3364 21.2976 27.2632 21.3562 27.2124 21.4207C27.1636 21.4851 27.1392 21.5593 27.1392 21.6433C27.1392 21.7058 27.1577 21.7556 27.1948 21.7927C27.2339 21.8298 27.2896 21.8572 27.3618 21.8748C27.4341 21.8904 27.521 21.8982 27.6226 21.8982H28.188C28.5376 21.8982 28.8052 21.9714 28.9907 22.1179C29.1782 22.2644 29.272 22.4783 29.272 22.7595C29.272 23.115 29.1274 23.3875 28.8384 23.5769C28.5493 23.7664 28.1313 23.8611 27.5845 23.8611ZM27.5991 23.4802C27.8647 23.4802 28.0845 23.4529 28.2583 23.3982C28.4341 23.3455 28.5649 23.2683 28.6509 23.1667C28.7388 23.0671 28.7827 22.948 28.7827 22.8093C28.7827 22.6804 28.7534 22.5828 28.6948 22.5164C28.6362 22.4519 28.5503 22.4089 28.437 22.3875C28.3237 22.364 28.1851 22.3523 28.021 22.3523H27.4644C27.3198 22.3523 27.1938 22.3748 27.0864 22.4197C26.979 22.4646 26.896 22.531 26.8374 22.6189C26.7808 22.7068 26.7524 22.8162 26.7524 22.947C26.7524 23.1208 26.8257 23.2527 26.9722 23.3425C27.1187 23.4343 27.3276 23.4802 27.5991 23.4802ZM27.7251 20.9138C27.9575 20.9138 28.1323 20.8552 28.2495 20.738C28.3667 20.6208 28.4253 20.45 28.4253 20.2253C28.4253 19.9851 28.3657 19.8054 28.2466 19.6863C28.1274 19.5652 27.9517 19.5046 27.7192 19.5046C27.4966 19.5046 27.3247 19.5671 27.2036 19.6921C27.0845 19.8152 27.0249 19.9958 27.0249 20.2341C27.0249 20.4529 27.0854 20.6208 27.2065 20.738C27.3276 20.8552 27.5005 20.9138 27.7251 20.9138ZM31.1821 19.1501C31.4556 19.1501 31.6899 19.2107 31.8853 19.3318C32.0806 19.4529 32.23 19.6228 32.3335 19.8416C32.437 20.0583 32.4888 20.3123 32.4888 20.6033V20.905H30.271C30.2769 21.282 30.3706 21.5691 30.5522 21.7664C30.7339 21.9636 30.9897 22.0623 31.3198 22.0623C31.5229 22.0623 31.7026 22.0437 31.8589 22.0066C32.0151 21.9695 32.1772 21.9148 32.3452 21.8425V22.2703C32.1831 22.3425 32.022 22.3953 31.8618 22.4285C31.7036 22.4617 31.5161 22.4783 31.2993 22.4783C30.9907 22.4783 30.7212 22.4158 30.4907 22.2908C30.2622 22.1638 30.0845 21.9783 29.9575 21.7341C29.8306 21.49 29.7671 21.1912 29.7671 20.8376C29.7671 20.4919 29.8247 20.1931 29.9399 19.9412C30.0571 19.6873 30.2212 19.4919 30.4321 19.3552C30.645 19.2185 30.895 19.1501 31.1821 19.1501ZM31.1763 19.5486C30.9165 19.5486 30.7095 19.6335 30.5552 19.8035C30.4009 19.9734 30.3091 20.2107 30.2798 20.5154H31.979C31.9771 20.324 31.9468 20.156 31.8882 20.0115C31.8315 19.865 31.7446 19.7517 31.6274 19.6716C31.5103 19.5896 31.3599 19.5486 31.1763 19.5486Z" fill="white"/>
</svg>
