<svg width="20" height="26" viewBox="0 0 20 26" fill="none" xmlns="http://www.w3.org/2000/svg">
<path d="M14.5657 15.5863C13.6363 15.5863 12.6576 15.4063 11.6459 15.0596C10.659 14.7196 9.66379 14.253 8.69327 13.6863C7.73098 13.113 6.80159 12.473 5.92155 11.773C5.04973 11.0596 4.26016 10.3063 3.56106 9.53298C2.85374 8.73298 2.28624 7.93297 1.88323 7.15964C1.45554 6.33297 1.2417 5.53298 1.2417 4.77964C1.2417 4.25964 1.35684 3.76631 1.57891 3.30631C1.8092 2.83298 2.17931 2.39298 2.68102 2.01298C3.31432 1.50631 4.0381 1.25298 4.81122 1.25298C5.13198 1.25298 5.46097 1.31298 5.74061 1.41964C6.06137 1.53964 6.33279 1.71964 6.53018 1.95964L8.43831 4.13964C8.61103 4.33298 8.74262 4.51964 8.83309 4.70631C8.94001 4.90631 8.99759 5.10631 8.99759 5.29964C8.99759 5.55298 8.90712 5.79964 8.7344 6.03298C8.61103 6.21298 8.42186 6.40631 8.18334 6.59964L7.62406 7.07297C7.63229 7.09297 7.64051 7.10631 7.64874 7.11964C7.74743 7.25964 7.94483 7.49964 8.32316 7.85964C8.72617 8.23297 9.10451 8.57297 9.48284 8.88631C9.9681 9.27297 10.3711 9.57964 10.7494 9.83297C11.2183 10.153 11.5226 10.313 11.7035 10.3863L11.6871 10.4196L12.2875 9.93964C12.5424 9.73297 12.7892 9.57964 13.0277 9.47964C13.48 9.25298 14.0558 9.21297 14.6315 9.40631C14.8453 9.47964 15.0756 9.57964 15.3224 9.71964L18.053 11.293C18.3573 11.4596 18.5794 11.673 18.711 11.9263C18.8343 12.1796 18.8919 12.413 18.8919 12.6463C18.8919 12.9663 18.8014 13.2863 18.6287 13.5863C18.456 13.8863 18.2421 14.1463 17.9707 14.3863C17.5019 14.8063 16.992 15.1063 16.3998 15.2996C15.8323 15.4863 15.2155 15.5863 14.5657 15.5863ZM4.81122 2.25298C4.35886 2.25298 3.9394 2.41298 3.53639 2.73298C3.15805 3.01964 2.89486 3.33298 2.73037 3.67298C2.55765 4.01964 2.4754 4.38631 2.4754 4.77964C2.4754 5.39964 2.65635 6.07298 3.01823 6.76631C3.38834 7.47298 3.9065 8.20631 4.56448 8.93964C5.22245 9.67297 5.9709 10.3863 6.79337 11.0596C7.61584 11.7196 8.50411 12.333 9.41705 12.873C10.3053 13.3996 11.2183 13.8263 12.123 14.133C13.5294 14.6196 14.8453 14.733 15.931 14.3663C16.3505 14.2263 16.7206 14.013 17.0578 13.7063C17.247 13.5396 17.395 13.3596 17.5184 13.1463C17.6171 12.9796 17.6664 12.8063 17.6664 12.633C17.6664 12.5263 17.6417 12.4196 17.5759 12.2996C17.5513 12.2596 17.5019 12.1863 17.3457 12.0996L14.6151 10.5263C14.4506 10.433 14.3025 10.3663 14.1627 10.3196C13.9818 10.2596 13.9077 10.1996 13.6281 10.3396C13.4636 10.4063 13.3156 10.5063 13.1511 10.6396L12.526 11.1396C12.2052 11.393 11.7117 11.453 11.3334 11.3396L11.1113 11.2596C10.7741 11.113 10.3793 10.8863 9.94343 10.5863C9.54864 10.313 9.12096 9.99297 8.6028 9.57964C8.19979 9.24631 7.79678 8.89297 7.37732 8.49964C6.99076 8.13297 6.71112 7.81964 6.5384 7.55964L6.43971 7.35964C6.39036 7.20631 6.37391 7.11964 6.37391 7.02631C6.37391 6.78631 6.48083 6.57297 6.68645 6.40631L7.3033 5.88631C7.46779 5.75298 7.59116 5.62631 7.67341 5.51298C7.73921 5.42631 7.76388 5.35298 7.76388 5.28631C7.76388 5.23298 7.73921 5.15298 7.69809 5.07298C7.64051 4.96631 7.55004 4.84631 7.4349 4.71964L5.52677 2.53298C5.44452 2.43964 5.34582 2.37298 5.22245 2.32631C5.09086 2.27964 4.95104 2.25298 4.81122 2.25298ZM11.6871 10.4263L11.5555 10.8796L11.7775 10.413C11.7364 10.4063 11.7035 10.413 11.6871 10.4263Z" fill="white"/>
<path d="M15.4291 6.91965C15.0919 6.91965 14.8122 6.69299 14.8122 6.41965C14.8122 6.17965 14.5161 5.67965 14.0227 5.25299C13.5374 4.83299 13.0028 4.58632 12.5504 4.58632C12.2132 4.58632 11.9336 4.35965 11.9336 4.08632C11.9336 3.81299 12.2132 3.58632 12.5504 3.58632C13.3482 3.58632 14.1872 3.93299 14.9192 4.56632C15.6018 5.15965 16.0459 5.88632 16.0459 6.41965C16.0459 6.69299 15.7663 6.91965 15.4291 6.91965Z" fill="white"/>
<path d="M18.3077 6.91964C17.9705 6.91964 17.6909 6.69298 17.6909 6.41964C17.6909 4.11964 15.388 2.25298 12.5504 2.25298C12.2132 2.25298 11.9336 2.02631 11.9336 1.75298C11.9336 1.47964 12.2132 1.25298 12.5504 1.25298C16.0624 1.25298 18.9246 3.57298 18.9246 6.41964C18.9246 6.69298 18.6449 6.91964 18.3077 6.91964Z" fill="white"/>
<path d="M7 19.5144C6.76367 19.5144 6.55078 19.5554 6.36133 19.6374C6.17383 19.7175 6.01367 19.8347 5.88086 19.989C5.75 20.1413 5.64941 20.3259 5.5791 20.5427C5.50879 20.7595 5.47363 21.0036 5.47363 21.2751C5.47363 21.6345 5.5293 21.947 5.64062 22.2126C5.75391 22.4763 5.92188 22.6804 6.14453 22.8249C6.36914 22.9695 6.64941 23.0417 6.98535 23.0417C7.17676 23.0417 7.35645 23.0261 7.52441 22.9948C7.69434 22.9616 7.85938 22.9206 8.01953 22.8718V23.3054C7.86328 23.364 7.69922 23.407 7.52734 23.4343C7.35547 23.4636 7.15137 23.4782 6.91504 23.4782C6.47949 23.4782 6.11523 23.3884 5.82227 23.2087C5.53125 23.0271 5.3125 22.7712 5.16602 22.4411C5.02148 22.1111 4.94922 21.7214 4.94922 21.2722C4.94922 20.948 4.99414 20.6521 5.08398 20.3845C5.17578 20.115 5.30859 19.8825 5.48242 19.6872C5.6582 19.4919 5.87305 19.3415 6.12695 19.2361C6.38281 19.1286 6.67578 19.0749 7.00586 19.0749C7.22266 19.0749 7.43164 19.0964 7.63281 19.1394C7.83398 19.1823 8.01562 19.2439 8.17773 19.3239L7.97852 19.7458C7.8418 19.6833 7.69141 19.6296 7.52734 19.5847C7.36523 19.5378 7.18945 19.5144 7 19.5144ZM10.0762 20.156C10.459 20.156 10.7432 20.2419 10.9287 20.4138C11.1143 20.5857 11.207 20.8601 11.207 21.237V23.4196H10.8525L10.7588 22.945H10.7354C10.6455 23.0622 10.5518 23.1609 10.4541 23.2409C10.3564 23.3191 10.2432 23.3786 10.1143 23.4196C9.9873 23.4587 9.83105 23.4782 9.64551 23.4782C9.4502 23.4782 9.27637 23.4441 9.12402 23.3757C8.97363 23.3073 8.85449 23.2038 8.7666 23.0652C8.68066 22.9265 8.6377 22.7507 8.6377 22.5378C8.6377 22.2175 8.76465 21.9714 9.01855 21.7995C9.27246 21.6277 9.65918 21.5339 10.1787 21.5183L10.7324 21.4948V21.2986C10.7324 21.0212 10.6729 20.8269 10.5537 20.7155C10.4346 20.6042 10.2666 20.5486 10.0498 20.5486C9.88184 20.5486 9.72168 20.573 9.56934 20.6218C9.41699 20.6706 9.27246 20.7282 9.13574 20.7946L8.98633 20.4255C9.13086 20.3513 9.29688 20.2878 9.48438 20.2351C9.67188 20.1823 9.86914 20.156 10.0762 20.156ZM10.7266 21.8376L10.2373 21.8581C9.83691 21.8737 9.55469 21.9392 9.39062 22.0544C9.22656 22.1696 9.14453 22.3327 9.14453 22.5437C9.14453 22.7273 9.2002 22.863 9.31152 22.9509C9.42285 23.0388 9.57031 23.0827 9.75391 23.0827C10.0391 23.0827 10.2725 23.0036 10.4541 22.8454C10.6357 22.6872 10.7266 22.4499 10.7266 22.1335V21.8376ZM12.6982 23.4196H12.209V18.8611H12.6982V23.4196ZM14.2158 23.4196H13.7266V18.8611H14.2158V23.4196Z" fill="white"/>
</svg>
