<svg width="48" height="65" viewBox="0 0 48 65" fill="none" xmlns="http://www.w3.org/2000/svg">
<path d="M36 18L26.4 7.5V12.75C21.6 12.75 12 15.9 12 28.5C12 26.7495 14.88 23.25 26.4 23.25V28.5L36 18Z" fill="white" stroke="white" stroke-width="2" stroke-linecap="round" stroke-linejoin="round"/>
<path d="M5.20219 59.112C4.42352 59.112 3.71952 58.9787 3.09019 58.712C2.47152 58.4453 1.98085 58.0613 1.61819 57.56C1.25552 57.0587 1.06885 56.4667 1.05819 55.784H3.45819C3.49019 56.2427 3.65019 56.6053 3.93819 56.872C4.23685 57.1387 4.64219 57.272 5.15419 57.272C5.67685 57.272 6.08752 57.1493 6.38619 56.904C6.68485 56.648 6.83419 56.3173 6.83419 55.912C6.83419 55.5813 6.73285 55.3093 6.53019 55.096C6.32752 54.8827 6.07152 54.7173 5.76219 54.6C5.46352 54.472 5.04752 54.3333 4.51419 54.184C3.78885 53.9707 3.19685 53.7627 2.73819 53.56C2.29019 53.3467 1.90085 53.032 1.57019 52.616C1.25019 52.1893 1.09019 51.624 1.09019 50.92C1.09019 50.2587 1.25552 49.6827 1.58619 49.192C1.91685 48.7013 2.38085 48.328 2.97819 48.072C3.57552 47.8053 4.25819 47.672 5.02619 47.672C6.17819 47.672 7.11152 47.9547 7.82619 48.52C8.55152 49.0747 8.95152 49.8533 9.02619 50.856H6.56219C6.54085 50.472 6.37552 50.1573 6.06619 49.912C5.76752 49.656 5.36752 49.528 4.86619 49.528C4.42885 49.528 4.07685 49.64 3.81019 49.864C3.55419 50.088 3.42619 50.4133 3.42619 50.84C3.42619 51.1387 3.52219 51.3893 3.71419 51.592C3.91685 51.784 4.16219 51.944 4.45019 52.072C4.74885 52.1893 5.16485 52.328 5.69819 52.488C6.42352 52.7013 7.01552 52.9147 7.47419 53.128C7.93285 53.3413 8.32752 53.6613 8.65819 54.088C8.98885 54.5147 9.15419 55.0747 9.15419 55.768C9.15419 56.3653 8.99952 56.92 8.69019 57.432C8.38085 57.944 7.92752 58.3547 7.33019 58.664C6.73285 58.9627 6.02352 59.112 5.20219 59.112ZM16.0882 50.008C16.7602 50.008 17.3575 50.1573 17.8802 50.456C18.4029 50.744 18.8082 51.176 19.0962 51.752C19.3949 52.3173 19.5442 53 19.5442 53.8V59H17.3042V54.104C17.3042 53.4 17.1282 52.8613 16.7762 52.488C16.4242 52.104 15.9442 51.912 15.3362 51.912C14.7175 51.912 14.2269 52.104 13.8642 52.488C13.5122 52.8613 13.3362 53.4 13.3362 54.104V59H11.0962V47.16H13.3362V51.24C13.6242 50.856 14.0082 50.5573 14.4882 50.344C14.9682 50.12 15.5015 50.008 16.0882 50.008ZM21.0983 54.536C21.0983 53.64 21.2743 52.8453 21.6263 52.152C21.989 51.4587 22.4743 50.9253 23.0823 50.552C23.701 50.1787 24.389 49.992 25.1463 49.992C25.8076 49.992 26.3836 50.1253 26.8743 50.392C27.3756 50.6587 27.7756 50.9947 28.0743 51.4V50.136H30.3303V59H28.0743V57.704C27.7863 58.12 27.3863 58.4667 26.8743 58.744C26.373 59.0107 25.7916 59.144 25.1303 59.144C24.3836 59.144 23.701 58.952 23.0823 58.568C22.4743 58.184 21.989 57.6453 21.6263 56.952C21.2743 56.248 21.0983 55.4427 21.0983 54.536ZM28.0743 54.568C28.0743 54.024 27.9676 53.56 27.7543 53.176C27.541 52.7813 27.253 52.4827 26.8903 52.28C26.5276 52.0667 26.1383 51.96 25.7223 51.96C25.3063 51.96 24.9223 52.0613 24.5703 52.264C24.2183 52.4667 23.9303 52.7653 23.7063 53.16C23.493 53.544 23.3863 54.0027 23.3863 54.536C23.3863 55.0693 23.493 55.5387 23.7063 55.944C23.9303 56.3387 24.2183 56.6427 24.5703 56.856C24.933 57.0693 25.317 57.176 25.7223 57.176C26.1383 57.176 26.5276 57.0747 26.8903 56.872C27.253 56.6587 27.541 56.36 27.7543 55.976C27.9676 55.5813 28.0743 55.112 28.0743 54.568ZM34.7581 51.512C35.0461 51.0427 35.4194 50.6747 35.8781 50.408C36.3474 50.1413 36.8807 50.008 37.4781 50.008V52.36H36.8861C36.1821 52.36 35.6487 52.5253 35.2861 52.856C34.9341 53.1867 34.7581 53.7627 34.7581 54.584V59H32.5181V50.136H34.7581V51.512ZM47.2268 54.376C47.2268 54.696 47.2055 54.984 47.1628 55.24H40.6828C40.7361 55.88 40.9601 56.3813 41.3548 56.744C41.7495 57.1067 42.2348 57.288 42.8108 57.288C43.6428 57.288 44.2348 56.9307 44.5868 56.216H47.0028C46.7468 57.0693 46.2561 57.7733 45.5308 58.328C44.8055 58.872 43.9148 59.144 42.8588 59.144C42.0055 59.144 41.2375 58.9573 40.5548 58.584C39.8828 58.2 39.3548 57.6613 38.9708 56.968C38.5975 56.2747 38.4108 55.4747 38.4108 54.568C38.4108 53.6507 38.5975 52.8453 38.9708 52.152C39.3441 51.4587 39.8668 50.9253 40.5388 50.552C41.2108 50.1787 41.9841 49.992 42.8588 49.992C43.7015 49.992 44.4535 50.1733 45.1148 50.536C45.7868 50.8987 46.3041 51.416 46.6668 52.088C47.0401 52.7493 47.2268 53.512 47.2268 54.376ZM44.9068 53.736C44.8961 53.16 44.6881 52.7013 44.2828 52.36C43.8775 52.008 43.3815 51.832 42.7948 51.832C42.2401 51.832 41.7708 52.0027 41.3868 52.344C41.0135 52.6747 40.7841 53.1387 40.6988 53.736H44.9068Z" fill="white"/>
</svg>
