<svg width="96" height="65" viewBox="0 0 96 65" fill="none" xmlns="http://www.w3.org/2000/svg">
<path d="M48 3C56.2845 3 63 9.7155 63 18C63 26.2845 56.2845 33 48 33C39.7155 33 33 26.2845 33 18C33 9.7155 39.7155 3 48 3ZM48 9C47.6022 9 47.2206 9.15804 46.9393 9.43934C46.658 9.72064 46.5 10.1022 46.5 10.5V18C46.5001 18.3978 46.6582 18.7793 46.9395 19.0605L51.4395 23.5605C51.7224 23.8337 52.1013 23.9849 52.4946 23.9815C52.8879 23.9781 53.2641 23.8203 53.5422 23.5422C53.8203 23.2641 53.9781 22.8879 53.9815 22.4946C53.9849 22.1013 53.8337 21.7224 53.5605 21.4395L49.5 17.379V10.5C49.5 10.1022 49.342 9.72064 49.0607 9.43934C48.7794 9.15804 48.3978 9 48 9Z" fill="white"/>
<path d="M16.3836 47.832L13.2636 59H10.6236L8.52756 51.048L6.33556 59L3.71156 59.016L0.703563 47.832H3.10356L5.07156 56.504L7.34356 47.832H9.83956L11.9836 56.456L13.9676 47.832H16.3836ZM17.2702 54.536C17.2702 53.64 17.4462 52.8453 17.7982 52.152C18.1609 51.4587 18.6462 50.9253 19.2542 50.552C19.8729 50.1787 20.5609 49.992 21.3182 49.992C21.9795 49.992 22.5555 50.1253 23.0462 50.392C23.5475 50.6587 23.9475 50.9947 24.2462 51.4V50.136H26.5022V59H24.2462V57.704C23.9582 58.12 23.5582 58.4667 23.0462 58.744C22.5449 59.0107 21.9635 59.144 21.3022 59.144C20.5555 59.144 19.8729 58.952 19.2542 58.568C18.6462 58.184 18.1609 57.6453 17.7982 56.952C17.4462 56.248 17.2702 55.4427 17.2702 54.536ZM24.2462 54.568C24.2462 54.024 24.1395 53.56 23.9262 53.176C23.7129 52.7813 23.4249 52.4827 23.0622 52.28C22.6995 52.0667 22.3102 51.96 21.8942 51.96C21.4782 51.96 21.0942 52.0613 20.7422 52.264C20.3902 52.4667 20.1022 52.7653 19.8782 53.16C19.6649 53.544 19.5582 54.0027 19.5582 54.536C19.5582 55.0693 19.6649 55.5387 19.8782 55.944C20.1022 56.3387 20.3902 56.6427 20.7422 56.856C21.1049 57.0693 21.4889 57.176 21.8942 57.176C22.3102 57.176 22.6995 57.0747 23.0622 56.872C23.4249 56.6587 23.7129 56.36 23.9262 55.976C24.1395 55.5813 24.2462 55.112 24.2462 54.568ZM31.2979 51.976V56.264C31.2979 56.5627 31.3673 56.7813 31.5059 56.92C31.6553 57.048 31.9006 57.112 32.2419 57.112H33.2819V59H31.8739C29.9859 59 29.0419 58.0827 29.0419 56.248V51.976H27.9859V50.136H29.0419V47.944H31.2979V50.136H33.2819V51.976H31.2979ZM34.3171 54.568C34.3171 53.6507 34.5037 52.8507 34.8771 52.168C35.2504 51.4747 35.7677 50.9413 36.4291 50.568C37.0904 50.184 37.8477 49.992 38.7011 49.992C39.7997 49.992 40.7064 50.2693 41.4211 50.824C42.1464 51.368 42.6317 52.136 42.8771 53.128H40.4611C40.3331 52.744 40.1144 52.4453 39.8051 52.232C39.5064 52.008 39.1331 51.896 38.6851 51.896C38.0451 51.896 37.5384 52.1307 37.1651 52.6C36.7917 53.0587 36.6051 53.7147 36.6051 54.568C36.6051 55.4107 36.7917 56.0667 37.1651 56.536C37.5384 56.9947 38.0451 57.224 38.6851 57.224C39.5917 57.224 40.1837 56.8187 40.4611 56.008H42.8771C42.6317 56.968 42.1464 57.7307 41.4211 58.296C40.6957 58.8613 39.7891 59.144 38.7011 59.144C37.8477 59.144 37.0904 58.9573 36.4291 58.584C35.7677 58.2 35.2504 57.6667 34.8771 56.984C34.5037 56.2907 34.3171 55.4853 34.3171 54.568ZM49.5101 50.008C50.1821 50.008 50.7794 50.1573 51.3021 50.456C51.8247 50.744 52.2301 51.176 52.5181 51.752C52.8167 52.3173 52.9661 53 52.9661 53.8V59H50.7261V54.104C50.7261 53.4 50.5501 52.8613 50.1981 52.488C49.8461 52.104 49.3661 51.912 48.7581 51.912C48.1394 51.912 47.6487 52.104 47.2861 52.488C46.9341 52.8613 46.7581 53.4 46.7581 54.104V59H44.5181V47.16H46.7581V51.24C47.0461 50.856 47.4301 50.5573 47.9101 50.344C48.3901 50.12 48.9234 50.008 49.5101 50.008ZM61.1487 47.16V59H58.9087V47.16H61.1487ZM62.7858 54.536C62.7858 53.64 62.9618 52.8453 63.3138 52.152C63.6765 51.4587 64.1618 50.9253 64.7698 50.552C65.3885 50.1787 66.0765 49.992 66.8338 49.992C67.4951 49.992 68.0711 50.1253 68.5618 50.392C69.0631 50.6587 69.4631 50.9947 69.7618 51.4V50.136H72.0178V59H69.7618V57.704C69.4738 58.12 69.0738 58.4667 68.5618 58.744C68.0605 59.0107 67.4791 59.144 66.8178 59.144C66.0711 59.144 65.3885 58.952 64.7698 58.568C64.1618 58.184 63.6765 57.6453 63.3138 56.952C62.9618 56.248 62.7858 55.4427 62.7858 54.536ZM69.7618 54.568C69.7618 54.024 69.6551 53.56 69.4418 53.176C69.2285 52.7813 68.9405 52.4827 68.5778 52.28C68.2151 52.0667 67.8258 51.96 67.4098 51.96C66.9938 51.96 66.6098 52.0613 66.2578 52.264C65.9058 52.4667 65.6178 52.7653 65.3938 53.16C65.1805 53.544 65.0738 54.0027 65.0738 54.536C65.0738 55.0693 65.1805 55.5387 65.3938 55.944C65.6178 56.3387 65.9058 56.6427 66.2578 56.856C66.6205 57.0693 67.0045 57.176 67.4098 57.176C67.8258 57.176 68.2151 57.0747 68.5778 56.872C68.9405 56.6587 69.2285 56.36 69.4418 55.976C69.6551 55.5813 69.7618 55.112 69.7618 54.568ZM76.8136 51.976V56.264C76.8136 56.5627 76.8829 56.7813 77.0216 56.92C77.1709 57.048 77.4162 57.112 77.7576 57.112H78.7976V59H77.3896C75.5016 59 74.5576 58.0827 74.5576 56.248V51.976H73.5016V50.136H74.5576V47.944H76.8136V50.136H78.7976V51.976H76.8136ZM88.6487 54.376C88.6487 54.696 88.6274 54.984 88.5847 55.24H82.1047C82.158 55.88 82.382 56.3813 82.7767 56.744C83.1714 57.1067 83.6567 57.288 84.2327 57.288C85.0647 57.288 85.6567 56.9307 86.0087 56.216H88.4247C88.1687 57.0693 87.678 57.7733 86.9527 58.328C86.2274 58.872 85.3367 59.144 84.2807 59.144C83.4274 59.144 82.6594 58.9573 81.9767 58.584C81.3047 58.2 80.7767 57.6613 80.3927 56.968C80.0194 56.2747 79.8327 55.4747 79.8327 54.568C79.8327 53.6507 80.0194 52.8453 80.3927 52.152C80.766 51.4587 81.2887 50.9253 81.9607 50.552C82.6327 50.1787 83.406 49.992 84.2807 49.992C85.1234 49.992 85.8754 50.1733 86.5367 50.536C87.2087 50.8987 87.726 51.416 88.0887 52.088C88.462 52.7493 88.6487 53.512 88.6487 54.376ZM86.3287 53.736C86.318 53.16 86.11 52.7013 85.7047 52.36C85.2994 52.008 84.8034 51.832 84.2167 51.832C83.662 51.832 83.1927 52.0027 82.8087 52.344C82.4354 52.6747 82.206 53.1387 82.1207 53.736H86.3287ZM92.5237 51.512C92.8117 51.0427 93.185 50.6747 93.6437 50.408C94.113 50.1413 94.6464 50.008 95.2437 50.008V52.36H94.6517C93.9477 52.36 93.4144 52.5253 93.0517 52.856C92.6997 53.1867 92.5237 53.7627 92.5237 54.584V59H90.2837V50.136H92.5237V51.512Z" fill="white"/>
</svg>
