<svg width="108" height="108" viewBox="0 0 108 108" fill="none" xmlns="http://www.w3.org/2000/svg">
<g filter="url(#filter0_bd_99_838)">
<rect x="34" y="30" width="40" height="40" fill="white"/>
<path d="M99.8187 15.6375C85.7938 13.6188 70.2937 12.5 54 12.5C37.7062 12.5 22.2062 13.6188 8.18125 15.6375C5.49375 26.1562 4 37.7812 4 50C4 62.2188 5.49375 73.8438 8.18125 84.3625C22.2062 86.3812 37.7062 87.5 54 87.5C70.2937 87.5 85.7938 86.3812 99.8187 84.3625C102.506 73.8438 104 62.2188 104 50C104 37.7812 102.506 26.1562 99.8187 15.6375ZM41.5 68.75V31.25L72.75 50L41.5 68.75Z" fill="#D62828"/>
</g>
<defs>
<filter id="filter0_bd_99_838" x="0" y="-4" width="108" height="112" filterUnits="userSpaceOnUse" color-interpolation-filters="sRGB">
<feFlood flood-opacity="0" result="BackgroundImageFix"/>
<feGaussianBlur in="BackgroundImageFix" stdDeviation="2"/>
<feComposite in2="SourceAlpha" operator="in" result="effect1_backgroundBlur_99_838"/>
<feColorMatrix in="SourceAlpha" type="matrix" values="0 0 0 0 0 0 0 0 0 0 0 0 0 0 0 0 0 0 127 0" result="hardAlpha"/>
<feOffset dy="4"/>
<feGaussianBlur stdDeviation="2"/>
<feComposite in2="hardAlpha" operator="out"/>
<feColorMatrix type="matrix" values="0 0 0 0 0 0 0 0 0 0 0 0 0 0 0 0 0 0 0.25 0"/>
<feBlend mode="normal" in2="effect1_backgroundBlur_99_838" result="effect2_dropShadow_99_838"/>
<feBlend mode="normal" in="SourceGraphic" in2="effect2_dropShadow_99_838" result="shape"/>
</filter>
</defs>
</svg>
