<?xml version="1.0" encoding="UTF-8"?><svg id="Layer_1" xmlns="http://www.w3.org/2000/svg" viewBox="0 0 847.8 440.55"><circle cx="466.31" cy="70.81" r="50.92"/><path d="M641.1,371.45c-9.9,8.78-21,12-21,12-1.45,.42-6.89,1.93-14.25,2.16,0,0-7.09,.05-14.21-1.19-39.76-6.95-46.42-54.76-93.35-67.89-21.67-6.06-40.1-1.43-45.19-.08-7.81,2.07-24.67,7.76-64,50-30.46,32.71-36.2,46.32-62,62-16.99,10.33-28.05,12.65-38,12-20.55-1.34-34.36-14.49-38-18-20.87-20.14-23.28-49.34-24-58-.36-4.31-.67-12.01-2-27-.26-2.89-1.32-14.82-2-20-3.64-27.61-21.18-50.1-25-55-12.76-16.36-26.7-26.04-38-33C87.11,184.51,26.8,186.02,7.1,144.45,1.02,131.61,.16,117.51,.1,116.45c-1.32-24.8,10.25-43.53,15-51,9.31-14.64,20.08-23,26.22-27.68,7.02-5.35,31.12-23.21,66.12-24.72,6.6-.29,19.74-.74,35.66,4.4,19.07,6.16,31.21,16.81,37,22,11.23,10.07,17.92,20.24,21.31,25.47,4.43,6.83,7.21,12.46,8.69,15.53,14.91,30.9,22.74,61.05,39.57,95.54,14.23,29.17,25.21,41.58,28.61,45.31,8.94,9.8,19.19,21.04,35.19,27.34,30.44,11.98,61.54-1.73,68.31-4.89,32.91-15.38,39.28-44.67,74.08-50.74,18.42-3.21,34.16,1.94,36.78,2.83,21.58,7.33,22.49,19.42,44.32,30.17,7.04,3.47,32.21,14.67,57.52,6.6,9.45-3.01,23.32-10.11,37.72-31.12,43.87-64,2.09-125,40.55-170.67C697.3,1.64,741.25-3.69,771.28,2.05c6.83,1.31,58.3,11.96,72.83,54.4,7.6,22.2,1.29,41.98,.25,45.09-10.57,31.62-38.97,37.85-75.44,65.06-21.31,15.9-65.86,49.14-84.87,101.84-9.85,27.33-25.7,87.71-42.95,103.01Z"/></svg>